<?xml version="1.0" encoding="UTF-8" standalone="no"?>
<!-- Created with Inkscape (http://www.inkscape.org/) -->

<svg
   xmlns:dc="http://purl.org/dc/elements/1.1/"
   xmlns:cc="http://creativecommons.org/ns#"
   xmlns:rdf="http://www.w3.org/1999/02/22-rdf-syntax-ns#"
   xmlns:svg="http://www.w3.org/2000/svg"
   xmlns="http://www.w3.org/2000/svg"
   xmlns:sodipodi="http://sodipodi.sourceforge.net/DTD/sodipodi-0.dtd"
   xmlns:inkscape="http://www.inkscape.org/namespaces/inkscape"
   width="800"
   height="800"
   id="svg2"
   version="1.1"
   inkscape:version="0.48.4 r9939"
   sodipodi:docname="New document 1">
  <defs
     id="defs4">
    <clipPath
       clipPathUnits="userSpaceOnUse"
       id="clipPath3103">
      <path
         transform="translate(-1.0152545,-0.51783)"
         sodipodi:type="arc"
         style="fill:#002255"
         id="path3105"
         sodipodi:cx="400"
         sodipodi:cy="400"
         sodipodi:rx="375"
         sodipodi:ry="375"
         d="m 775,400 a 375,375 0 1 1 -750,0 375,375 0 1 1 750,0 z" />
    </clipPath>
    <clipPath
       clipPathUnits="userSpaceOnUse"
       id="clipPath3125">
      <path
         transform="translate(-0.00510199,0.49232)"
         sodipodi:type="arc"
         style="fill:#002255"
         id="path3127"
         sodipodi:cx="400"
         sodipodi:cy="400"
         sodipodi:rx="375"
         sodipodi:ry="375"
         d="m 775,400 a 375,375 0 1 1 -750,0 375,375 0 1 1 750,0 z" />
    </clipPath>
    <clipPath
       clipPathUnits="userSpaceOnUse"
       id="clipPath3140">
      <path
         transform="translate(2.0049991,-2.79705)"
         sodipodi:type="arc"
         style="fill:#002255"
         id="path3142"
         sodipodi:cx="400"
         sodipodi:cy="400"
         sodipodi:rx="375"
         sodipodi:ry="375"
         d="m 775,400 a 375,375 0 1 1 -750,0 375,375 0 1 1 750,0 z" />
    </clipPath>
    <clipPath
       clipPathUnits="userSpaceOnUse"
       id="clipPath3151">
      <path
         transform="translate(1.4973718,-4.78164)"
         sodipodi:type="arc"
         style="fill:#002255"
         id="path3153"
         sodipodi:cx="400"
         sodipodi:cy="400"
         sodipodi:rx="375"
         sodipodi:ry="375"
         d="m 775,400 a 375,375 0 1 1 -750,0 375,375 0 1 1 750,0 z" />
    </clipPath>
    <clipPath
       clipPathUnits="userSpaceOnUse"
       id="clipPath3155">
      <path
         transform="translate(1.4973718,-4.78164)"
         sodipodi:type="arc"
         style="fill:#002255"
         id="path3157"
         sodipodi:cx="400"
         sodipodi:cy="400"
         sodipodi:rx="375"
         sodipodi:ry="375"
         d="m 775,400 a 375,375 0 1 1 -750,0 375,375 0 1 1 750,0 z" />
    </clipPath>
  </defs>
  <sodipodi:namedview
     id="base"
     pagecolor="#ffffff"
     bordercolor="#666666"
     borderopacity="1.0"
     inkscape:pageopacity="0.0"
     inkscape:pageshadow="2"
     inkscape:zoom="0.98994949"
     inkscape:cx="356.01821"
     inkscape:cy="387.84795"
     inkscape:document-units="px"
     inkscape:current-layer="layer1"
     showgrid="true"
     inkscape:snap-grids="true"
     inkscape:window-width="1920"
     inkscape:window-height="1017"
     inkscape:window-x="-8"
     inkscape:window-y="-8"
     inkscape:window-maximized="1">
    <inkscape:grid
       type="xygrid"
       id="grid3071"
       empspacing="4"
       visible="true"
       enabled="true"
       snapvisiblegridlinesonly="true"
       spacingx="25px"
       spacingy="25px" />
  </sodipodi:namedview>
  <metadata
     id="metadata7">
    <rdf:RDF>
      <cc:Work
         rdf:about="">
        <dc:format>image/svg+xml</dc:format>
        <dc:type
           rdf:resource="http://purl.org/dc/dcmitype/StillImage" />
        <dc:title></dc:title>
      </cc:Work>
    </rdf:RDF>
  </metadata>
  <g
     inkscape:label="Layer 1"
     inkscape:groupmode="layer"
     id="layer1"
     transform="translate(0,-252.36218)">
    <path
       sodipodi:type="arc"
       style="fill:#3771c8"
       id="path3073"
       sodipodi:cx="400"
       sodipodi:cy="400"
       sodipodi:rx="400"
       sodipodi:ry="400"
       d="m 800,400 a 400,400 0 1 1 -800,0 400,400 0 1 1 800,0 z"
       transform="translate(0,252.36218)" />
    <path
       sodipodi:type="arc"
       style="fill:#002255"
       id="path3075"
       sodipodi:cx="400"
       sodipodi:cy="400"
       sodipodi:rx="375"
       sodipodi:ry="375"
       d="m 775,400 a 375,375 0 1 1 -750,0 375,375 0 1 1 750,0 z"
       transform="translate(0,252.36218)" />
    <path
       style="fill:#008033"
       d="m 215.16249,180.77649 c -12.84312,0 -0.14443,-0.95238 -5.05076,1.01015 -1.28903,0.51561 -2.75159,0.49454 -4.04061,1.01015 -0.88426,0.35371 -1.1168,1.71914 -2.02031,2.02031 -0.63887,0.21296 -1.38142,-0.21296 -2.0203,0 -0.45175,0.15058 -0.58424,0.79719 -1.01015,1.01015 -0.30117,0.15059 -0.70899,-0.15058 -1.01016,0 -2.72613,1.36307 0.0349,0.45278 -1.01015,2.02031 -4.6774,7.0161 -0.47817,-2.12792 -2.0203,4.04061 -0.39542,1.58166 -2.73111,4.56415 -3.03046,6.06091 -0.19811,0.99054 0,2.02031 0,3.03046 0,0.67344 0.21296,1.38143 0,2.02031 -0.30117,0.9035 -1.59439,1.16847 -2.02031,2.0203 -0.30117,0.60234 0.21296,1.38143 0,2.02031 -2.43898,7.31695 0.29123,-1.59262 -2.0203,3.03045 -0.15059,0.30117 0.15058,0.70899 0,1.01016 -2.31154,4.62307 0.41868,-4.2865 -2.02031,3.03045 -0.10648,0.31944 0,0.67344 0,1.01016 -0.67343,1.01015 -1.47736,1.94457 -2.0203,3.03045 -0.15059,0.30117 0.10648,0.69072 0,1.01016 -0.2381,0.71428 -0.67344,1.34687 -1.01015,2.0203 -0.33672,0.67344 -0.59251,1.39384 -1.01016,2.02031 -0.52828,0.79243 -1.49202,1.22787 -2.0203,2.0203 -0.41765,0.62647 -0.77206,1.30602 -1.01015,2.02031 -0.10648,0.31944 0.23809,0.77205 0,1.01015 -0.5324,0.5324 -1.48791,0.47775 -2.02031,1.01015 -0.23809,0.2381 0.10648,0.69072 0,1.01015 -0.23809,0.71429 -0.59251,1.39384 -1.01015,2.02031 -3.53058,5.29587 2.35702,-4.37733 -3.03046,1.01015 -0.47619,0.47619 0.47619,1.54412 0,2.02031 -0.47619,0.47619 -1.41797,-0.30117 -2.0203,0 -0.30117,0.15058 0.23809,0.77205 0,1.01015 -0.5324,0.5324 -1.39384,0.59251 -2.02031,1.01015 -0.39621,0.26415 -0.61394,0.74601 -1.01015,1.01015 -0.9104,2.00549 -2.79886,0.38928 -4.04061,1.01016 -0.85184,0.42592 -1.2584,1.44887 -2.02031,2.0203 -6.20112,4.65085 1.93331,-1.97681 -4.04061,1.01015 -1.27775,0.63888 -1.7527,2.39159 -3.03046,3.03046 -0.80812,0.40406 -2.22233,-0.40406 -3.03045,0 -0.30117,0.15059 0.23809,0.77206 0,1.01016 -0.2381,0.23809 -0.70899,-0.15059 -1.01016,0 -0.42591,0.21295 -0.61393,0.746 -1.01015,1.01015 -0.62647,0.41764 -1.39383,0.5925 -2.0203,1.01015 -0.39622,0.26414 -0.58424,0.79719 -1.01016,1.01015 -0.30117,0.15059 -0.67343,0 -1.01015,0 -0.67343,0.33672 -1.39383,0.59251 -2.0203,1.01016 -0.39622,0.26414 -0.58424,0.79719 -1.01016,1.01015 -0.30117,0.15058 -0.67343,0 -1.01015,0 -0.67343,0 -1.36698,-0.16333 -2.0203,0 -1.46089,0.36522 -2.57973,1.65508 -4.04061,2.0203 -0.65333,0.16333 -1.41797,-0.30117 -2.02031,0 -0.85183,0.42592 -1.20364,1.53031 -2.0203,2.02031 -0.71511,3.08001 -2.79886,0.38927 -4.04061,1.01015 -0.42592,0.21296 -0.58424,0.79719 -1.01016,1.01015 -0.9533,2.50496 -2.72353,0.57113 -4.04061,1.01016 -0.71428,0.23809 -1.34687,0.67343 -2.0203,1.01015 -0.67344,0.33672 -1.39384,0.5925 -2.02031,1.01015 -0.39621,0.26414 -0.58423,0.79719 -1.01015,1.01015 -0.30117,0.15059 -0.70898,-0.15058 -1.01015,0 -4.20402,2.10201 1.07989,-0.0697 -1.01015,2.02031 -0.2381,0.23809 -0.77206,-0.2381 -1.01016,0 -0.31218,0.31218 0.30968,4.74108 0,5.05076 -0.23809,0.2381 -0.77205,-0.23809 -1.01015,0 -0.2764,0.2764 0.274,3.49262 0,4.04061 -0.21296,0.42592 -0.79719,0.58424 -1.01015,1.01015 -0.15059,0.30117 0,0.67344 0,1.01016 0,0.33671 0,0.67343 0,1.01015 0,1.68359 0,3.36717 0,5.05076 0,3.03046 0,6.06092 0,9.09137 0,1.01016 -0.19811,2.03993 0,3.03046 0.27227,1.36136 0.49454,2.75159 1.01015,4.04061 0.17685,0.44213 0.67344,0.67344 1.01015,1.01015 0.33672,1.01016 0.80133,1.98635 1.01016,3.03046 0.13207,0.66036 -0.25011,1.39504 0,2.02031 0.45088,1.12722 1.39568,1.98941 2.0203,3.03046 0.77475,1.29125 1.24555,2.74935 2.02031,4.04061 0.62462,1.04104 1.47736,1.94457 2.0203,3.03045 0.47619,0.95238 0.59071,2.05176 1.01015,3.03046 0.59319,1.38409 1.34687,2.69374 2.02031,4.04061 0.33672,0.67344 0.5584,1.41797 1.01015,2.02031 1.14286,1.52381 2.85072,2.55324 4.04061,4.04061 0.75841,0.94801 1.39568,1.98941 2.02031,3.03045 0.38737,0.64563 0.47775,1.48791 1.01015,2.02031 0.5324,0.5324 1.48791,0.47775 2.0203,1.01015 0.5324,0.5324 0.59251,1.39384 1.01016,2.02031 0.26414,0.39621 0.67343,0.67343 1.01015,1.01015 0.67343,0.67343 1.22787,1.49202 2.0203,2.0203 0.28017,0.18678 0.69072,-0.10648 1.01016,0 7.31695,2.43899 -1.59262,-0.29123 3.03045,2.02031 0.30117,0.15058 0.70899,-0.15059 1.01016,0 4.62307,2.31154 -4.2865,-0.41868 3.03045,2.0203 0.63888,0.21296 1.41797,-0.30116 2.02031,0 0.42592,0.21296 0.58423,0.7972 1.01015,1.01016 0.30117,0.15058 0.77206,-0.2381 1.01015,0 0.2381,0.23809 -0.30116,0.85956 0,1.01015 0.60234,0.30117 1.41797,-0.30117 2.02031,0 0.30117,0.15058 -0.2381,0.77206 0,1.01015 0.23809,0.2381 0.70898,-0.15058 1.01015,0 0.42592,0.21296 0.58424,0.7972 1.01015,1.01015 0.30117,0.15059 0.77206,-0.23809 1.01016,0 0.23809,0.2381 -0.2381,0.77206 0,1.01016 0.23809,0.23809 0.77205,-0.2381 1.01015,0 0.23809,0.23809 -0.2381,0.77205 0,1.01015 2.69374,0 -0.33672,-0.33672 1.01015,1.01015 0.2381,0.2381 0.77206,-0.23809 1.01015,0 0.2381,0.2381 -0.15058,0.70899 0,1.01015 0.21296,0.42592 0.7972,0.58424 1.01016,1.01016 0.15058,0.30117 -0.15059,0.70898 0,1.01015 0.21296,0.42592 0.79719,0.58423 1.01015,1.01015 0.30117,0.60234 -0.30117,1.41797 0,2.02031 0.12874,0.25748 1.89156,1.76282 2.0203,2.0203 0.15059,0.30117 -0.10647,0.69072 0,1.01016 2.43899,7.31695 -0.29123,-1.59262 2.02031,3.03045 0.26722,0.53444 -0.26722,1.48587 0,2.02031 0.21296,0.42592 0.79719,0.58423 1.01015,1.01015 0.15371,0.30742 0,2.57553 0,3.03046 0,1.01015 -0.45175,2.12695 0,3.03046 0.15059,0.30116 0.85957,-0.30117 1.01016,0 0.42916,0.85833 -0.33472,4.0466 0,5.05076 0.15058,0.45175 0.79719,0.58423 1.01015,1.01015 0.18409,0.36818 0,4.46872 0,5.05076 0,4.04061 0,8.08122 0,12.12183 0,1.74636 0.10557,2.36702 -1.01015,4.04061 -0.26415,0.39622 -0.7972,0.58424 -1.01016,1.01016 -0.47619,0.95238 -0.7519,1.99745 -1.01015,3.03045 -0.0817,0.32667 0.15058,0.70899 0,1.01016 -0.21296,0.42591 -0.74601,0.61394 -1.01015,1.01015 -0.8353,1.25294 -1.18501,2.78767 -2.02031,4.04061 -1.23221,1.84831 -1.28788,0.10078 -2.0203,3.03046 -0.16333,0.65333 0.21296,1.38143 0,2.0203 -0.15059,0.45176 -0.74601,0.61394 -1.01016,1.01016 -0.83529,1.25294 -1.34687,2.69374 -2.0203,4.04061 -0.33672,0.67343 -0.67344,1.34687 -1.01015,2.0203 -0.33672,0.67344 -0.82754,1.28986 -1.01016,2.02031 -0.40833,1.63332 0.33018,3.39986 0,5.05076 -0.14766,0.7383 -0.82754,1.28986 -1.01015,2.0203 -0.2616,1.04641 0,2.88231 0,4.04061 0,3.7039 0,7.40779 0,11.11168 0,2.35702 0,4.71405 0,7.07107 0,0.45493 -0.15371,2.72303 0,3.03046 0.13411,0.2682 2.76225,2.89635 3.03046,3.03045 0.30117,0.15059 0.77206,-0.23809 1.01015,0 0.5324,0.5324 0.47776,1.48791 1.01015,2.02031 0.2381,0.23809 0.69072,-0.10648 1.01016,0 0.71428,0.23809 1.28986,0.82754 2.0203,1.01015 0.91575,0.22894 3.8773,0 5.05077,0 3.36717,0 6.73435,0 10.10152,0 4.37733,0 8.75466,0 13.13198,0 1.34687,0 2.70043,0.13402 4.04061,0 2.03801,-0.2038 4.02291,-0.80635 6.06092,-1.01015 2.68037,-0.26804 5.41455,0.38095 8.08122,0 1.04538,-0.14934 3.98682,-1.31101 5.05076,-2.02031 0.39622,-0.26414 0.5584,-0.85956 1.01015,-1.01015 1.27776,-0.42592 2.73396,0.32667 4.04061,0 1.82832,0.60885 1.87871,-1.63639 3.03046,-2.0203 0.63888,-0.21296 1.38143,0.21296 2.02031,0 1.16034,-0.38678 1.40151,-2.41167 2.0203,-3.03046 0.5324,-0.5324 1.48791,-0.47776 2.02031,-1.01015 0.23809,-0.2381 -0.2381,-0.77206 0,-1.01016 0.53239,-0.53239 1.48791,-0.47775 2.0203,-1.01015 0.2381,-0.23809 -0.18677,-0.72998 0,-1.01015 0.52829,-0.79243 1.34687,-1.34687 2.02031,-2.02031 0.33672,-1.01015 0.46232,-2.1174 1.01015,-3.03045 0.49,-0.81666 1.49202,-1.22788 2.02031,-2.02031 2.94983,-4.42475 1.54062,-3.87694 3.03045,-9.09137 0.86354,-3.02239 1.20196,-1.29786 3.03046,-4.04061 0.18678,-0.28017 0,-0.67344 0,-1.01015 0,-1.01016 -0.37516,-2.09256 0,-3.03046 0.35371,-0.88427 1.53031,-1.20365 2.02031,-2.02031 0.02,-0.0333 1.96794,-5.93 2.0203,-6.06091 1.77662,-4.44155 0.83759,0.60396 3.03046,-7.07107 0.18501,-0.64752 -0.25011,-1.39504 0,-2.02031 5.98148,-8.97222 -0.80937,2.42811 2.0203,-6.06091 0.38392,-1.15175 1.63639,-1.87871 2.02031,-3.03046 0.31944,-0.95831 0,-2.0203 0,-3.03046 0,-1.34687 0,-2.69374 0,-4.04061 0,-1.68358 -0.18592,-3.37747 0,-5.05076 0.30663,-2.75966 1.62763,-5.33248 2.0203,-8.08122 0.14286,-1 -0.31943,-2.07214 0,-3.03046 0.38392,-1.15175 1.43071,-1.96918 2.02031,-3.03045 1.09695,-1.97452 2.0203,-4.04061 3.03046,-6.06092 1.34687,-2.69374 2.37002,-5.57534 4.04061,-8.08122 1.722,-2.583 4.04061,-4.71405 6.06091,-7.07107 10.26483,-11.97563 1.56462,-2.62034 12.12183,-12.12183 1.4158,-1.27422 2.77516,-2.61697 4.04061,-4.04061 1.4324,-1.61145 2.41802,-3.631 4.04061,-5.05076 1.61625,-1.41421 4.24264,-1.81828 6.06092,-3.03046 0.78234,-0.52156 1.23797,-1.49875 2.0203,-2.0203 0.62647,-0.41765 1.48791,-0.47776 2.02031,-1.01016 0.23809,-0.23809 -0.15059,-0.70898 0,-1.01015 0.21296,-0.42592 0.79719,-0.58423 1.01015,-1.01015 0.15059,-0.30117 -0.23809,-0.77206 0,-1.01015 0.5324,-0.5324 1.48791,-0.47776 2.02031,-1.01016 0.23809,-0.23809 0,-0.67343 0,-1.01015 0,-1.34687 -0.32667,-2.73395 0,-4.04061 0.11549,-0.46197 0.85956,-0.5584 1.01015,-1.01015 0.21296,-0.63888 0,-1.34687 0,-2.02031 0,-0.67343 0,-1.34687 0,-2.0203 0,-3.70389 0,-7.40779 0,-11.11168 0,-0.85608 0.22099,-5.50843 0,-6.06092 -0.45089,-1.12721 -1.63639,-1.8787 -2.02031,-3.03045 -0.42089,-1.26269 0.2806,-3.64778 0,-5.05077 -0.20882,-1.04411 -0.61469,-2.04182 -1.01015,-3.03045 -0.55926,-1.39815 -1.54411,-2.61204 -2.0203,-4.04061 -0.62199,-1.86597 1.54139,-0.47891 -1.01016,-3.03046 -0.23809,-0.2381 -0.72998,0.18678 -1.01015,0 -1.56331,-1.04221 -2.53696,-2.91287 -4.04061,-4.04061 -10.21788,-7.66341 3.64804,2.79491 -6.06091,-3.03046 -0.81666,-0.48999 -1.27663,-1.42536 -2.02031,-2.0203 -0.94802,-0.75842 -2.0978,-1.24309 -3.03046,-2.02031 -1.09746,-0.91455 -1.91493,-2.13804 -3.03045,-3.03046 -0.58794,-0.47034 -1.48791,-0.47775 -2.02031,-1.01015 -0.85846,-0.85846 -1.16184,-2.17199 -2.02031,-3.03046 -5.16226,-5.16226 1.4089,4.23555 -4.04061,-3.03045 -0.45175,-0.60234 -0.62277,-1.37468 -1.01015,-2.02031 -0.62462,-1.04104 -1.34687,-2.0203 -2.0203,-3.03046 -0.67344,-1.01015 -1.34687,-2.0203 -2.02031,-3.03046 -0.67343,-1.01015 -1.54206,-1.91456 -2.0203,-3.03045 -0.54689,-1.27607 -0.52268,-2.74069 -1.01016,-4.04061 -4.06738,-10.84637 0.0698,0.78977 -4.04061,-6.06092 -0.54783,-0.91305 -0.61469,-2.04182 -1.01015,-3.03046 -0.0559,-0.13964 -2.01077,-3.99296 -2.0203,-4.04061 -0.33018,-1.65089 0,-3.36717 0,-5.05076 0,-1.34687 0,-2.69374 0,-4.04061 0,-0.67343 0.13207,-1.35995 0,-2.0203 -1.05101,-5.25502 -0.67344,-1.01016 -2.02031,-5.05077 -0.85021,-2.55062 2.05171,1.05202 -1.01015,-3.03045 -0.57143,-0.76191 -1.44888,-1.2584 -2.02031,-2.02031 -1.22673,-1.63564 -0.47546,-2.00056 -2.0203,-3.03046 -8.08122,-5.38748 3.70389,3.7039 -3.03046,-3.03045 -0.23809,-0.2381 -0.67343,0 -1.01015,0 -0.67344,-0.33672 -1.60266,-0.38369 -2.02031,-1.01016 -0.37355,-0.56033 0.47619,-1.54411 0,-2.0203 -0.47619,-0.47619 -1.38143,0.21296 -2.0203,0 -0.45176,-0.15059 -0.61394,-0.74601 -1.01015,-1.01015 -0.62647,-0.41765 -1.30602,-0.77206 -2.02031,-1.01016 -0.31944,-0.10648 -0.67343,0 -1.01015,0 -0.33672,-0.33671 -0.58424,-0.79719 -1.01015,-1.01015 -0.60234,-0.30117 -1.54412,0.47619 -2.02031,0 -0.23809,-0.2381 0.2381,-0.77206 0,-1.01015 -0.47619,-0.47619 -1.54411,0.47619 -2.0203,0 -0.2381,-0.2381 0.23809,-0.77206 0,-1.01016 -0.2381,-0.23809 -0.67344,0 -1.01016,0 -0.9514,0 -4.47612,0.19155 -5.05076,0 -0.45175,-0.15058 -0.58423,-0.79719 -1.01015,-1.01015 -0.30117,-0.15058 -0.77206,0.2381 -1.01015,0 -0.2381,-0.23809 -0.33672,-1.01015 0,-1.01015 0.33671,0 0,0.67343 0,1.01015"
       id="path2993"
       inkscape:connector-curvature="0"
       transform="translate(0,252.36218)" />
    <path
       style="fill:#008033"
       d="m 468.71078,111.07596 c -6.92826,6.92826 -1.40594,2.25778 -6.06091,5.05077 -1.04105,0.62462 -2.02031,1.34687 -3.03046,2.0203 -1.01015,0.67344 -2.27205,1.07229 -3.03046,2.02031 -0.66517,0.83146 -0.39125,2.164 -1.01015,3.03045 -1.10712,1.54997 -2.82121,2.57734 -4.04061,4.04061 -0.48201,0.57842 -0.53981,1.43238 -1.01015,2.02031 -3.40767,4.25958 -3.64859,1.77141 -5.05077,8.08122 -0.29217,1.3148 0,2.69374 0,4.04061 0,2.69374 0,5.38748 0,8.08122 0,1.68359 -0.36522,3.40727 0,5.05076 0.57733,2.59796 2.93054,5.55662 5.05077,7.07107 1.39468,0.9962 5.15642,2.60498 7.07106,3.03046 1.9994,0.44431 4.0739,0.5134 6.06092,1.01015 1.46088,0.36522 2.61204,1.54412 4.04061,2.02031 1.31708,0.43902 2.72353,0.57112 4.04061,1.01015 0.71428,0.23809 1.32123,0.73052 2.0203,1.01015 0.98864,0.39546 2.07808,0.53396 3.03046,1.01015 0.42592,0.21296 0.61394,0.74601 1.01015,1.01016 0.62647,0.41764 1.30602,0.77205 2.02031,1.01015 0.31944,0.10648 0.85957,-0.30117 1.01015,0 0.30117,0.60234 0,1.34687 0,2.0203 0,2.02031 0,4.04061 0,6.06092 0,1.68359 0.2381,3.3841 0,5.05076 -0.48331,3.38319 -1.75704,5.90785 -3.03046,9.09138 -0.67343,1.68358 -1.12066,3.47639 -2.0203,5.05076 -0.47251,0.8269 -1.44888,1.2584 -2.02031,2.0203 -1.01528,1.35371 -1.43824,3.5956 -2.0203,5.05077 -0.27963,0.69907 -0.82754,1.28986 -1.01015,2.0203 -0.31438,1.25751 0.31437,2.7831 0,4.04061 -0.18261,0.73044 -0.82755,1.28986 -1.01016,2.02031 -0.16333,0.65332 0,1.34687 0,2.0203 0,0.67344 0,1.34687 0,2.02031 0,2.86901 -0.32804,5.40483 1.01016,8.08122 0.94561,1.89122 8.87443,5.68804 11.11167,6.06091 0.99641,0.16607 2.03405,-0.16607 3.03046,0 1.05031,0.17505 1.98015,0.8351 3.03046,1.01015 0.99641,0.16607 2.0203,0 3.03046,0 1.34687,0 2.69374,0 4.04061,0 2.00864,0 4.05227,0 6.06091,0 1.34687,0 2.70414,0.16706 4.04061,0 4.38208,-0.54776 4.01304,-1.28694 8.08122,-3.03045 1.9574,-0.83889 4.08364,-1.2294 6.06092,-2.02031 3.70389,-1.48156 0.67343,-0.20203 3.03046,-3.03046 9.60512,-11.52615 -2.54786,7.19646 9.09137,-14.14213 2.23999,-4.10665 4.90726,-7.97454 7.07107,-12.12183 4.06541,-7.79204 5.98998,-12.84825 8.08122,-21.21321 0.49675,-1.98701 0.60847,-4.05251 1.01015,-6.06091 0.27227,-1.36136 0.81381,-2.66624 1.01015,-4.04061 0.14286,-1 0,-2.02031 0,-3.03046 0,-1.68359 0,-3.36717 0,-5.05076 0,-4.04061 0,-8.08122 0,-12.12183 0,-1.68359 -0.15242,-3.37409 0,-5.05076 0.36303,-3.99327 1.39934,-8.45181 3.03046,-12.12184 0.49307,-1.10941 1.31465,-2.04254 2.0203,-3.03045 0.46378,-0.64928 3.61517,-5.19956 5.05077,-6.06092 0.91305,-0.54783 2.09568,-0.50027 3.03046,-1.01015 9.9306,-5.41669 6.8316,-5.56107 18.18274,-10.10153 3.264,-1.3056 6.86158,-1.66626 10.10153,-3.03045 3.19505,-1.34529 5.88577,-3.73081 9.09137,-5.05077 2.5675,-1.0572 5.51816,-0.95236 8.08122,-2.0203 1.55408,-0.64754 2.53476,-2.277536 4.04061,-3.030459 0.60234,-0.301169 1.38143,0.212959 2.02031,0 3.79512,2.364909 3.18813,-2.409581 5.05076,-3.030458 0.63887,-0.212959 1.41796,0.30117 2.0203,0 0.85184,-0.425917 1.34687,-1.34687 2.02031,-2.020305 0.67343,-0.673435 1.34687,-1.34687 2.0203,-2.020305 0.33672,-0.336717 0.74601,-0.613938 1.01016,-1.010152 0.41764,-0.62647 0.62277,-1.374679 1.01015,-2.020305 1.24925,-2.082083 2.83593,-3.952731 4.04061,-6.060916 2.37815,-4.16176 2.38492,-5.134446 4.04061,-10.101525 0.33672,-1.010153 0.7519,-1.997456 1.01015,-3.030458 0.41642,-1.665666 0.79719,-3.347092 1.01015,-5.050763 0.1253,-1.002352 -0.27751,-2.059171 0,-3.030457 0.41369,-1.447908 1.60662,-2.592703 2.02031,-4.04061 0.27751,-0.971286 0,-2.020305 0,-3.030458 0,-0.673435 0,-1.34687 0,-2.020305 0,-0.45493 0.15371,-2.723034 0,-3.030458 -1.11675,-2.233503 -0.62695,-0.313472 -2.02031,-1.010152 -1.54712,-0.773564 -0.78995,-1.800109 -2.0203,-3.030458 -0.47619,-0.47619 -1.41797,0.301169 -2.02031,0 -0.36128,-0.180644 -3.76055,-3.620524 -4.04061,-4.04061 -0.12544,-0.188163 -1.95557,-3.97588 -2.0203,-4.04061 -0.2381,-0.238096 -0.77206,0.238095 -1.01015,0 -0.2381,-0.238096 0.15058,-0.708984 0,-1.010153 -2.31154,-4.623071 0.41868,4.286498 -2.02031,-3.030457 -0.10648,-0.319439 0.2381,-0.772058 0,-1.010153 -0.23809,-0.238095 -0.67343,0 -1.01015,0 -0.33672,-0.673435 -0.47776,-1.487908 -1.01015,-2.020305 -0.2381,-0.238095 -0.85957,0.301169 -1.01016,0 -0.30117,-0.602339 0.30117,-1.417967 0,-2.020305 -0.15058,-0.301169 -0.70898,0.150584 -1.01015,0 -0.42592,-0.212959 -0.58423,-0.797194 -1.01015,-1.010153 -0.30117,-0.150584 -0.70899,0.150585 -1.01015,0 -0.42592,-0.212959 -0.58424,-0.797193 -1.01016,-1.010152 -0.30117,-0.150585 -0.70898,0.150584 -1.01015,0 -0.42592,-0.212959 -0.54818,-0.89466 -1.01015,-1.010153 -0.97999,-0.244998 -2.02031,0 -3.03046,0 -0.67344,0 -1.34687,0 -2.02031,0 -0.67343,0 -1.38142,0.212959 -2.0203,0 -0.45175,-0.150584 -0.54818,-0.894659 -1.01015,-1.010152 -0.89961,-0.224902 -5.72962,0 -7.07107,0 -0.31551,0 -4.27942,0 -5.05076,0 -0.67344,0 -1.34687,0 -2.02031,0 -0.33672,0 -0.68349,-0.08167 -1.01015,0 -1.033,0.25825 -2.02031,0.673435 -3.03046,1.010152 -1.01015,0.336718 -1.99745,0.751902 -3.03046,1.010153 -0.32666,0.08167 -0.77205,-0.238096 -1.01015,0 -0.5324,0.532397 -0.47775,1.487908 -1.01015,2.020305 -0.5324,0.532397 -1.48791,0.477755 -2.02031,1.010152 -0.53239,0.532397 -0.47775,1.487908 -1.01015,2.020305 -4.02672,4.026723 0.0905,-3.3961 -5.05076,3.030458 -0.66517,0.831465 -0.6147,2.041821 -1.01015,3.030458 -0.37978,0.949435 -2.48411,5.332451 -3.03046,6.060915 -0.57143,0.761905 -1.6666,1.136042 -2.02031,2.020305 -0.37516,0.937903 0.37516,2.092555 0,3.030458 -0.3537,0.884263 -1.34687,1.34687 -2.0203,2.020305 -0.33672,0.336717 -0.85957,0.558398 -1.01015,1.010152 -0.21296,0.638877 0.21295,1.381429 0,2.020305 -0.4762,1.428572 -1.34687,2.693741 -2.02031,4.040611 -0.33672,0.673435 -0.47776,1.487908 -1.01015,2.020305 -0.5324,0.532397 -1.56855,0.407814 -2.02031,1.010152 -0.63887,0.851836 -0.46232,2.117404 -1.01015,3.030458 -0.22279,0.371316 -4.44833,4.649139 -5.05076,5.050763 -0.62647,0.417646 -1.56855,0.407814 -2.02031,1.010152 -0.63887,0.851836 -0.25723,2.277535 -1.01015,3.030458 -0.75292,0.752923 -2.07808,0.533962 -3.03046,1.010152 -0.42592,0.212959 -0.67343,0.673435 -1.01015,1.010153 -1.01015,1.010152 -2.02031,2.020305 -3.03046,3.030458 -0.33672,0.336717 -0.61394,0.746009 -1.01015,1.010152 -0.62647,0.417647 -1.39384,0.592506 -2.02031,1.010153 -0.39621,0.264143 -0.58423,0.797193 -1.01015,1.010152 -0.30117,0.150585 -0.69071,-0.106479 -1.01015,0 -0.81515,0.271715 -5.4049,2.538444 -6.06092,3.030458 -2.01255,1.509414 -1.59549,2.419179 -4.04061,3.030457 -1.26788,0.316971 -2.77272,-0.31697 -4.04061,0 -5.7232,2.861604 1.50585,-0.376461 -4.04061,1.010153 -4.87797,1.219493 0.0501,0.480044 -3.03045,2.020305 -0.62571,0.312851 -3.74173,-0.298886 -4.04061,0 -0.5324,0.532397 -0.38369,1.602658 -1.01016,2.020305 -0.56033,0.373555 -1.34687,0 -2.0203,0 -1.01015,0 -2.05047,-0.244998 -3.03046,0 -0.92394,0.230986 -1.16847,1.594388 -2.0203,2.020305 -0.30117,0.150585 -0.77206,-0.238095 -1.01016,0 -0.23809,0.238095 0.2381,0.772058 0,1.010153 -0.23809,0.238095 -0.77205,-0.238095 -1.01015,0 -0.5324,0.532397 -0.59251,1.393835 -1.01015,2.020305 -0.72701,1.090506 -1.2933,0.929799 -2.02031,2.020305 -0.41764,0.62647 -0.5925,1.393835 -1.01015,2.020305 -0.26414,0.396214 -0.67344,0.673434 -1.01015,1.010154 -1.01016,1.01015 -2.02031,2.0203 -3.03046,3.03046 -0.33672,0.33671 -0.79719,0.58423 -1.01015,1.01015 -0.15059,0.30117 0.23809,0.77206 0,1.01015 -0.2381,0.2381 -0.77206,-0.23809 -1.01016,0 -0.23809,0.2381 0.15059,0.70898 0,1.01015 -0.21295,0.42592 -0.79719,0.58424 -1.01015,1.01016 -0.15058,0.30117 0.2381,0.77205 0,1.01015 -2.09004,2.09004 0.0817,-3.19386 -2.0203,1.01015 -0.15059,0.30117 0.23809,0.77206 0,1.01015 -0.33678,0.33679 -1.68353,-0.33678 -2.02031,0 -0.23809,0.2381 0.2381,0.77206 0,1.01016 -0.23809,0.23809 -0.67343,0 -1.01015,0 -2.35702,0 -4.71405,0 -7.07107,0 -0.67343,0 -1.34687,0 -2.0203,0 -0.33672,0 -1.01016,0.33671 -1.01016,0 0,-0.33672 1.34687,0 1.01016,0 -0.67344,0 -1.34687,0 -2.02031,0 -0.33672,0 -0.70898,-0.15059 -1.01015,0 -1.1564,0.57819 -0.59891,1.48395 -2.02031,1.01015 -1.72022,-0.57341 -3.36717,-1.34687 -5.05076,-2.02031 z"
       id="path3001"
       inkscape:connector-curvature="0"
       transform="translate(0,252.36218)"
       clip-path="url(#clipPath3155)" />
    <path
       style="fill:#008033"
       d="m 321.22851,209.06076 c 4.10048,0.47862 3.16253,-1.29571 6.06091,-2.0203 3.42723,-0.85681 1.11228,1.91818 5.05077,-2.02031 0.85846,-0.85846 1.34687,-2.0203 2.0203,-3.03046 0.67344,-1.01015 1.54207,-1.91456 2.02031,-3.03045 1.51983,-3.54629 1.01015,-7.3844 1.01015,-11.11168 0,-1.34687 0,-2.69374 0,-4.04061 0,-1.34687 0.29218,-2.72582 0,-4.04061 -1.76262,-7.93181 -1.35913,-2.54377 -5.05076,-8.08122 -0.59064,-0.88597 -0.46232,-2.11741 -1.01016,-3.03046 -0.48999,-0.81666 -1.34687,-1.34687 -2.0203,-2.02031 -0.67344,-0.67343 -1.34687,-1.34687 -2.02031,-2.0203 -0.67343,-0.67344 -1.24532,-1.46675 -2.0203,-2.02031 -1.59767,-1.14119 -3.51762,-1.80394 -5.05076,-3.03045 -1.85921,-1.48737 -3.36718,-3.36718 -5.05077,-5.05077 -2.35702,-1.34687 -4.86202,-2.46272 -7.07106,-4.04061 -4.03601,-2.88286 -8.94886,-8.21566 -13.13199,-11.11167 -2.232,-1.54524 -4.81229,-2.53477 -7.07106,-4.04061 -1.79394,-1.19596 -3.25683,-2.84466 -5.05077,-4.04062 -1.25294,-0.83529 -2.97581,-0.95551 -4.04061,-2.0203 -1.06479,-1.06479 -1.07961,-2.86474 -2.0203,-4.04061 -0.47035,-0.58793 -1.48791,-0.47776 -2.02031,-1.01015 -0.88264,-0.88265 -1.62581,-4.26179 -2.0203,-5.05077 -1.16264,-2.32526 -1.18494,0.4404 -3.03046,-2.0203 -3.65693,-4.8759 0.52913,-1.20256 -1.01015,-5.05076 -0.17374,-0.43436 -3.96928,-5.77557 -4.04061,-6.06092 -0.40833,-1.63332 0.40833,-3.41744 0,-5.05076 -0.0608,-0.24309 -3.86362,-5.647933 -4.04061,-6.060917 -0.54689,-1.276069 -0.62875,-2.705705 -1.01016,-4.04061 -0.58504,-2.04765 -1.60265,-3.972682 -2.0203,-6.060915 -0.13207,-0.660357 0,-1.34687 0,-2.020305 0,-1.010153 0.19811,-2.039922 0,-3.030458 -0.14766,-0.738302 -0.88637,-1.277626 -1.01015,-2.020305 -0.22143,-1.328544 0,-2.69374 0,-4.04061 0,-0.336718 0.0817,-0.683489 0,-1.010153 -0.25825,-1.033002 -0.75191,-1.997455 -1.01016,-3.030457 -0.0817,-0.326664 0.10648,-0.690715 0,-1.010153 -0.47619,-1.428571 -1.46104,-2.642467 -2.0203,-4.04061 -0.39546,-0.988637 -0.53396,-2.078077 -1.01015,-3.030458 -0.21296,-0.425917 -0.89466,-0.54818 -1.01016,-1.010152 -0.24499,-0.979992 0.37517,-2.092555 0,-3.030458 -0.3537,-0.884263 -1.44887,-1.2584 -2.0203,-2.020305 -2.04424,-2.725646 0.0169,-1.655386 -2.02031,-5.050763 -1.01015,-1.683587 -2.0203,-1.683587 -3.03045,-3.030457 -0.72844,-0.971242 -1.29188,-2.059216 -2.02031,-3.030458 -0.28571,-0.380952 -0.74601,-0.613938 -1.01015,-1.010152 -0.8353,-1.25294 -1.24556,-2.749358 -2.02031,-4.040611 -0.62462,-1.041041 -1.39568,-1.989416 -2.0203,-3.030457 -0.38738,-0.645627 -0.59251,-1.393835 -1.01015,-2.020305 -0.26415,-0.396215 -0.74601,-0.613938 -1.01016,-1.010153 -0.41764,-0.62647 -0.77205,-1.306019 -1.01015,-2.020305 -0.0433,-0.129976 -0.0418,-2.946799 0,-3.030458 0.21296,-0.425917 0.79719,-0.584234 1.01015,-1.010152 0.15059,-0.301169 -0.28873,-0.836913 0,-1.010153 1.55488,-0.932924 3.42892,-1.209382 5.05077,-2.020305 1.08588,-0.542941 1.91456,-1.542066 3.03045,-2.020305 1.98583,-2.470454 4.86041,-0.125889 7.07107,-1.010152 0.88426,-0.353706 1.16847,-1.594388 2.02031,-2.020306 0.60233,-0.301169 1.36697,0.163332 2.0203,0 0.73044,-0.18261 1.28986,-0.827541 2.02031,-1.010152 0.65332,-0.163332 1.38143,0.212959 2.0203,0 4.49901,-1.499671 3.58221,-2.540939 8.08122,-4.04061 1.27776,-0.425918 2.76286,0.425917 4.04061,0 0.45176,-0.150585 0.67344,-0.673435 1.01015,-1.010153 0.67344,-0.336717 1.30602,-0.772057 2.02031,-1.010152 0.90914,-0.303046 2.12132,0.303045 3.03046,0 0.90351,-0.30117 1.11679,-1.719136 2.0203,-2.020305 6.93461,-2.3115363 -4.70518,3.867817 5.05077,-1.010153 1.08588,-0.5429407 1.8787,-1.6363881 3.03045,-2.0203051 0.95832,-0.3194383 2.03405,0.1660681 3.03046,0 1.05031,-0.1750511 1.99746,-0.751902 3.03046,-1.0101525 0.32666,-0.081666 0.70898,0.1505846 1.01015,0 0.42592,-0.2129589 0.58424,-0.7971937 1.01015,-1.0101526 0.35217,-0.1760824 5.31939,0 6.06092,0 1.68359,0 3.36717,0 5.05076,0 0.67344,0 1.41797,-0.3011693 2.02031,0 0.85183,0.4259177 1.20364,1.5303091 2.0203,2.0203051 0.91305,0.5478321 2.07808,0.5339621 3.03046,1.0101525 1.08588,0.5429407 2.0203,1.3468701 3.03046,2.0203056 1.01015,0.673435 2.0203,1.34687 3.03045,2.020305 1.72072,1.147142 5.81811,3.797799 7.07107,5.050762 1.19048,1.190477 1.83998,2.850134 3.03046,4.040611 1.19048,1.190476 3.06204,1.660466 4.04061,3.030457 0.80695,1.129724 0.27434,2.863316 1.01015,4.04061 6.21344,9.941496 2.1463,-0.758173 6.06092,7.071068 0.47619,0.952381 0.59071,2.051757 1.01015,3.030458 0.59318,1.384091 1.42712,2.656519 2.02031,4.04061 2.74657,6.408669 0.0466,0.233156 1.01015,5.050763 0.20882,1.044116 0.80133,1.986341 1.01015,3.030457 0.13207,0.660358 0,1.34687 0,2.020305 0,1.346871 0,2.693741 0,4.040611 0,0.65004 0.1709,6.387452 0,7.071067 -0.36522,1.460886 -1.72498,2.564007 -2.0203,4.040611 -0.19811,0.990536 0.24499,2.050465 0,3.030457 -0.1155,0.461973 -0.72444,0.6292 -1.01016,1.010153 -0.72843,0.971242 -1.56941,1.903238 -2.0203,3.030457 -0.25011,0.625269 0.16333,1.366978 0,2.020306 -0.18261,0.730442 -0.73053,1.321233 -1.01015,2.020305 -4.06739,10.168469 0.78872,-2.144751 -1.01016,5.050762 -0.18261,0.730443 -0.82754,1.289863 -1.01015,2.020305 -0.16333,0.653328 0,1.34687 0,2.020306 0,2.357022 0,4.714045 0,7.071067 0,1.010153 0,2.020305 0,3.030458 0,1.010153 -0.245,2.050466 0,3.030459 0.23099,0.92394 1.59439,1.16847 2.02031,2.0203 0.47619,0.95238 0.53396,2.07808 1.01015,3.03046 0.21296,0.42592 0.67343,0.67344 1.01015,1.01015 0.33672,0.33672 0.67344,0.67344 1.01015,1.01016 1.34687,1.34687 2.69374,2.69374 4.04061,4.04061 0.67344,0.67343 1.49202,1.22787 2.02031,2.0203 0.41764,0.62647 0.47775,1.48791 1.01015,2.02031 1.06479,1.06479 2.83593,1.11679 4.04061,2.0203 0.76191,0.57143 1.2584,1.44888 2.02031,2.02031 0.27823,0.20867 3.76238,1.81163 4.04061,2.0203 0.7619,0.57143 1.34687,1.34687 2.0203,2.02031 0.33672,0.33671 0.76516,0.60182 1.01015,1.01015 0.77476,1.29125 1.05629,2.88379 2.02031,4.04061 6.6778,8.01336 -0.0676,-3.12508 5.05076,4.04061 1.1412,1.59767 2.02031,3.36718 3.03046,5.05076 1.01015,1.68359 2.23305,3.2566 3.03046,5.05077 0.56385,1.26866 0.38927,2.79885 1.01015,4.04061 3.45605,6.91209 2.705,1.04392 5.05076,8.08122 0.54294,1.62882 0.4073,3.44315 1.01015,5.05076 0.42629,1.13675 1.47737,1.94458 2.02031,3.03046 0.95238,1.90476 1.27256,4.06692 2.0203,6.06091 0.63669,1.69783 1.38363,3.35294 2.02031,5.05076 0.33672,1.01016 0.67343,2.02031 1.01015,3.03046 0,1.01015 -0.31944,2.07214 0,3.03046 2.21358,3.32036 1.98491,2.40148 3.03046,6.06091 2.811,9.83849 -0.12189,-0.85323 1.01015,7.07107 0.19634,1.37437 0.81382,2.66624 1.01016,4.04061 0.14285,1 0,2.02031 0,3.03046 0,2.69374 0,5.38748 0,8.08122 0,1.68359 0,3.36718 0,5.05076 0,1.01016 0.31943,2.07215 0,3.03046 -0.38392,1.15175 -1.59403,1.89371 -2.02031,3.03046 -0.60285,1.60761 -0.53848,3.39989 -1.01015,5.05076 -0.20685,0.72396 -0.86249,1.282 -1.01015,2.02031 -0.19811,0.99053 0.31943,2.07214 0,3.03045 -0.38392,1.15176 -1.47737,1.94458 -2.02031,3.03046 -0.47619,0.95238 -0.7519,1.99746 -1.01015,3.03046 -0.0817,0.32666 0.18677,0.72999 0,1.01015 -0.52829,0.79243 -1.44888,1.2584 -2.02031,2.02031 -0.45175,0.60234 -0.77205,1.30602 -1.01015,2.0203 -0.10648,0.31944 0.2381,0.77206 0,1.01015 -0.5324,0.5324 -1.48791,0.47776 -2.02031,1.01016 -0.23809,0.23809 0.2381,0.77205 0,1.01015 -1.38799,1.388 -3.33705,1.01015 -5.05076,1.01015 -0.33672,0 -0.70898,-0.15058 -1.01015,0 -0.42592,0.21296 -0.58424,0.7972 -1.01015,1.01016 -0.30117,0.15058 -0.68349,-0.0817 -1.01016,0 -1.033,0.25825 -1.98634,0.80132 -3.03045,1.01015 -0.66036,0.13207 -1.34687,0 -2.02031,0 -3.03046,0 -6.06091,0 -9.09137,0 -0.67344,0 -1.36698,-0.16333 -2.02031,0 -0.73044,0.18261 -1.282,0.86249 -2.0203,1.01015 -0.99054,0.19811 -2.02031,0 -3.03046,0 -3.03046,0 -6.06091,0 -9.09137,0 -5.22836,0 -10.0445,0.44922 -15.15229,-1.01015 -3.02239,-0.86354 -1.29786,-1.20196 -4.04061,-3.03046 -0.28017,-0.18678 -0.70898,0.15058 -1.01015,0 -1.01016,-0.67343 -2.02031,-1.34687 -3.03046,-2.02031 0,-0.33671 0.18678,-0.72998 0,-1.01015 -0.52829,-0.79243 -1.59439,-1.16847 -2.02031,-2.0203 -0.30116,-0.60234 0.25011,-1.39504 0,-2.02031 -0.45088,-1.12722 -1.56941,-1.90324 -2.0203,-3.03046 -0.25011,-0.62526 0,-1.34687 0,-2.0203 0,-1.01015 0,-2.02031 0,-3.03046 0,-4.37733 0,-8.75465 0,-13.13198"
       id="path3003"
       inkscape:connector-curvature="0"
       transform="translate(0,252.36218)"
       clip-path="url(#clipPath3151)" />
    <path
       style="fill:#008033"
       d="m 428.30468,311.08617 c -1.34687,0.33672 -2.69374,0.67343 -4.04061,1.01015 0,0.33672 0.30117,0.85957 0,1.01015 -0.60234,0.30117 -1.34687,0 -2.02031,0 -0.33671,0 -0.77205,-0.23809 -1.01015,0 -0.5324,0.5324 -0.38368,1.60266 -1.01015,2.02031 -0.56033,0.37355 -1.35995,-0.13207 -2.02031,0 -1.04411,0.20882 -2.05175,0.59071 -3.03045,1.01015 -12.39677,5.3129 3.07381,-1.03183 -7.07107,4.04061 -1.62185,0.81092 -3.42892,1.20938 -5.05076,2.02031 -1.08589,0.54294 -1.94458,1.47736 -3.03046,2.0203 -0.95238,0.47619 -2.03346,0.63628 -3.03046,1.01015 -1.69783,0.63669 -3.39377,1.28387 -5.05076,2.02031 -5.91917,2.63074 -2.41923,1.2761 -8.08122,5.05076 -0.62647,0.41765 -1.41797,0.5584 -2.02031,1.01015 -2.18602,1.63952 -5.23169,5.59355 -6.06091,8.08122 -0.0647,0.19401 -0.10151,2.97971 0,3.03046 0.60234,0.30117 1.35099,-0.0744 2.0203,0 2.36639,0.26293 4.711,0.69548 7.07107,1.01015 5.45144,0.72686 10.04205,0.79474 15.15229,3.03046 4.76003,2.08252 12.66489,7.34682 17.17259,10.10153 3.35064,2.04761 6.71691,4.06996 10.10153,6.06091 7.48874,4.40514 15.51636,8.55297 22.22335,14.14214 3.94519,3.28766 5.94508,6.16865 9.09138,10.10152 1.34687,1.68359 2.88308,3.2318 4.04061,5.05077 1.21267,1.90563 2.0203,4.04061 3.03045,6.06091 1.01016,2.02031 2.02031,4.04061 3.03046,6.06092 0.67344,1.34687 1.22221,2.76365 2.02031,4.04061 1.7846,2.85536 4.19314,5.27956 6.06091,8.08122 0.41765,0.62647 0.47776,1.48791 1.01015,2.0203 0.85847,0.85847 2.27205,1.07229 3.03046,2.02031 0.66517,0.83146 0.32849,2.21246 1.01015,3.03046 1.07781,1.29336 2.71167,1.99683 4.04061,3.03045 1.70188,1.32369 3.3071,2.77249 5.05077,4.04061 4.03048,2.93126 6.94163,4.56904 11.11168,7.07107 1.68358,1.01015 3.29465,2.15241 5.05076,3.03046 5.22822,2.61411 5.92543,2.14526 12.12183,3.03046 2.35702,0.33671 4.69713,0.82754 7.07107,1.01015 2.01435,0.15495 4.04574,-0.14394 6.06091,0 2.70781,0.19341 5.37181,0.84081 8.08122,1.01015 2.6885,0.16803 5.38748,0 8.08122,0 2.35702,0 4.71405,0 7.07107,0 5.90244,0 7.5414,0.38749 13.13198,-1.01015 2.66376,-0.66594 12.34329,-4.33123 14.14214,-5.05076 2.38095,-0.95238 4.81322,-1.8147 7.07107,-3.03046 2.13787,-1.15117 3.92304,-2.88945 6.06091,-4.04061 2.25785,-1.21577 4.75078,-1.93856 7.07107,-3.03046 9.535,-4.48706 18.76061,-9.63093 28.28427,-14.14213 2.99705,-1.41966 6.1252,-2.55753 9.09137,-4.04061 2.42811,-1.21406 4.64297,-2.82656 7.07107,-4.04062 2.29364,-1.14681 4.74273,-1.95583 7.07107,-3.03045 2.05087,-0.94656 4.01406,-2.07526 6.06091,-3.03046 3.00516,-1.40241 6.20099,-2.41477 9.09138,-4.04061 2.52456,-1.42007 4.63455,-3.48443 7.07107,-5.05076 2.28355,-1.468 4.71404,-2.69374 7.07106,-4.04061 2.35703,-1.34687 4.60623,-2.90299 7.07107,-4.04061 1.93358,-0.89243 4.04061,-1.34687 6.06092,-2.02031 2.0203,-0.67343 4.02114,-1.40837 6.06091,-2.0203 1.32977,-0.39894 2.72353,-0.57113 4.04061,-1.01016 0.96898,-0.32299 6.30799,-2.67581 8.08122,-3.03045 0.66036,-0.13208 1.36698,0.16333 2.02031,0 1.46088,-0.36523 2.55525,-1.77275 4.04061,-2.02031 1.32854,-0.22142 2.69374,0 4.04061,0 1.01015,0 2.0203,0 3.03046,0 0.33671,0 0.69071,0.10648 1.01015,0 4.04061,-1.34687 -0.20426,-0.9693 5.05076,-2.0203 0.66036,-0.13208 1.36698,0.16333 2.02031,0 0.73044,-0.18261 1.30601,-0.77206 2.0203,-1.01016 1.31708,-0.43902 2.79886,-0.38927 4.04061,-1.01015 0.85184,-0.42592 1.16847,-1.59439 2.02031,-2.0203 0.60233,-0.30117 1.41796,0.30116 2.0203,0 0.85184,-0.42592 1.16847,-1.59439 2.02031,-2.02031 0.60233,-0.30117 1.41796,0.30117 2.0203,0 0.30117,-0.15058 -0.15058,-0.70898 0,-1.01015 0.77356,-1.54713 1.80011,-0.78996 3.03046,-2.02031 0.23809,-0.23809 -0.2381,-0.77205 0,-1.01015 2.09004,-2.09004 -0.0817,3.19386 2.0203,-1.01015 0.15059,-0.30117 -0.15058,-0.70899 0,-1.01015 3.35026,-3.35026 -0.47619,0.95238 1.01016,-2.02031 2.31153,-4.62307 -0.41868,4.2865 2.0203,-3.03046 0.10648,-0.31944 0,-0.67343 0,-1.01015 0,-0.67343 -0.21296,-1.38143 0,-2.02031 0.15059,-0.45175 0.85957,-0.55839 1.01015,-1.01015 0.093,-0.27888 0.0369,-5.9871 0,-6.06091 -0.42591,-0.85184 -1.59438,-1.16847 -2.0203,-2.02031 -0.15059,-0.30117 0.30117,-0.85957 0,-1.01015 -0.60234,-0.30117 -1.41797,0.30117 -2.02031,0 -0.30117,-0.15059 0.15059,-0.70898 0,-1.01015 -0.21295,-0.42592 -0.61393,-0.74601 -1.01015,-1.01016 -0.62647,-0.41764 -1.30602,-0.77205 -2.0203,-1.01015 -0.31944,-0.10648 -0.77206,0.2381 -1.01016,0 -0.53239,-0.5324 -0.47775,-1.48791 -1.01015,-2.0203 -2.09004,-2.09004 0.0817,3.19386 -2.0203,-1.01016 -0.11321,-0.2264 0,-3.80056 0,-4.04061 0,-1.01015 0,-2.0203 0,-3.03045 0,-0.67344 -0.21296,-1.38143 0,-2.02031 0.47619,-1.42857 1.34687,-2.69374 2.0203,-4.04061 1.01015,-2.0203 1.94884,-4.07795 3.03046,-6.06091 0.94017,-1.72365 2.1524,-3.29466 3.03046,-5.05077 2.61207,-5.22413 0.92015,-4.18065 4.04061,-8.08122 0.59494,-0.74368 1.49202,-1.22787 2.0203,-2.0203 0.8353,-1.25294 1.2732,-2.73317 2.02031,-4.04061 0.60234,-1.0541 1.34687,-2.02031 2.0203,-3.03046 0.67344,-1.01015 1.29188,-2.05922 2.02031,-3.03046 1.29362,-1.72483 3.00818,-3.15798 4.04061,-5.05076 1.01976,-1.86956 0.92464,-4.23481 2.0203,-6.06092 0.97999,-1.63332 2.93349,-2.49064 4.04061,-4.04061 0.6189,-0.86645 0.48187,-2.10595 1.01016,-3.03045 0.83529,-1.46177 2.09657,-2.63978 3.03045,-4.04061 7.73669,-12.89449 -0.40304,-0.25382 5.05077,-7.07107 6.13072,-7.66341 -1.45067,1.40762 3.03045,-6.06092 0.49,-0.81666 1.44888,-1.2584 2.02031,-2.0203 1.32396,-1.76529 1.00169,-3.01354 2.0203,-5.05076 0.54294,-1.08589 1.41797,-1.97637 2.02031,-3.03046 1.49422,-2.61488 2.54639,-5.46634 4.04061,-8.08122 0.60234,-1.0541 1.56942,-1.90324 2.0203,-3.03046 0.0485,-0.12134 -0.0466,-3.76113 0,-4.04061 0.22824,-1.36943 0.78192,-2.67118 1.01016,-4.04061 0.11071,-0.66427 0,-1.34687 0,-2.02031 0,-2.35702 0,-4.71404 0,-7.07106 0,-2.02031 0,-4.04061 0,-6.06092 0,-1.34687 0.13401,-2.70042 0,-4.04061 -0.2038,-2.03801 -0.82472,-4.02115 -1.01016,-6.06091 -0.15242,-1.67668 0.33018,-3.39987 0,-5.05077 -0.35561,-1.77806 -1.62695,-3.28066 -2.0203,-5.05076 -0.90648,-4.07917 1.10908,-3.23528 -1.01015,-6.06092 -0.57143,-0.7619 -1.34687,-1.34687 -2.02031,-2.0203 -0.33672,-0.33672 -0.58423,-0.79719 -1.01015,-1.01015 -0.30117,-0.15059 -0.67344,0 -1.01015,0 -0.67344,-0.33672 -1.34687,-0.67344 -2.02031,-1.01016 -1.34687,-0.67343 -2.61204,-1.54411 -4.04061,-2.0203 -1.31708,-0.43903 -2.76454,-0.46327 -4.04061,-1.01015 -1.11589,-0.47824 -1.8937,-1.59403 -3.03046,-2.02031 -1.60761,-0.60285 -3.36717,-0.67343 -5.05076,-1.01015 -2.02031,-0.67344 -4.09514,-1.20123 -6.06092,-2.02031 -2.08501,-0.86875 -4.0046,-2.09577 -6.06091,-3.03045 -1.65075,-0.75034 -3.42892,-1.20939 -5.05076,-2.02031 -1.75611,-0.87805 -3.26337,-2.218 -5.05077,-3.03046 -1.9387,-0.88123 -4.06692,-1.27255 -6.06091,-2.0203 -0.70499,-0.26437 -1.32123,-0.73052 -2.02031,-1.01015 -0.98863,-0.39546 -2.04182,-0.6147 -3.03045,-1.01016 -0.69908,-0.27962 -1.30602,-0.77205 -2.02031,-1.01015 -1.31708,-0.43902 -2.67118,-0.78191 -4.04061,-1.01015 -0.66427,-0.11071 -1.39504,0.25011 -2.0203,0 -1.12722,-0.45089 -1.98942,-1.39568 -3.03046,-2.02031 -4.08801,-2.4528 0.0433,0.0108 -4.04061,-1.01015 -2.00605,-0.50151 -4.05487,-2.52894 -6.06092,-3.03046 -0.65333,-0.16333 -1.34687,0 -2.0203,0 -0.67344,0 -1.34687,0 -2.02031,0 -1.05048,0 -5.26631,-0.19865 -6.06091,0 -1.46089,0.36522 -2.65652,1.42713 -4.04061,2.02031 -1.66667,0.71428 -3.42892,1.20938 -5.05077,2.0203 -1.08588,0.54294 -2.0203,1.34687 -3.03045,2.02031 -1.01016,0.67343 -2.0978,1.24309 -3.03046,2.0203 -1.09746,0.91455 -1.8876,2.17332 -3.03046,3.03046 -1.57071,1.17803 -3.75786,1.55286 -5.05076,3.03046 -1.19405,1.36463 -0.95379,3.5843 -2.02031,5.05076 -1.68049,2.31068 -4.25166,3.84961 -6.06091,6.06092 -1.24329,1.51957 -1.94137,3.41713 -3.03046,5.05076 -1.01763,1.52644 -8.00798,10.96519 -9.09137,13.13198 -0.95238,1.90476 -1.06793,4.15616 -2.02031,6.06092 -1.08588,2.17176 -2.81716,3.96357 -4.04061,6.06091 -1.13813,1.95108 -1.67519,4.2539 -3.03046,6.06092 -1.71428,2.28571 -4.47605,3.68363 -6.06091,6.06091 -1.18128,1.77193 -0.83902,4.28899 -2.02031,6.06092 -1.58485,2.37729 -4.23181,3.866 -6.06091,6.06091 -3.10887,3.73065 -5.12034,8.27269 -8.08122,12.12184 -7.26055,9.43871 -4.13412,4.44651 -11.11168,12.12183 -1.76903,1.94593 -3.09601,4.30164 -5.05076,6.06091 -1.45937,1.31344 -3.50096,1.82506 -5.05076,3.03046 -1.50353,1.16941 -2.45576,2.98404 -4.04061,4.04061 -1.50874,1.00583 -3.54203,1.01448 -5.05077,2.0203 -3.16971,2.11315 -4.96033,5.89661 -8.08122,8.08122 -1.85045,1.29532 -4.07795,1.94885 -6.06091,3.03046 -1.72365,0.94017 -3.29466,2.15241 -5.05077,3.03046 -2.29363,1.14682 -4.71404,2.0203 -7.07106,3.03046 -2.35703,1.68358 -4.51113,3.6955 -7.07107,5.05076 -5.2173,2.7621 -13.57571,5.06493 -19.1929,7.07107 -1.70764,0.60987 -3.33053,1.44689 -5.05076,2.0203 -2.32555,0.77518 -4.76732,1.18258 -7.07107,2.02031 -3.83553,1.39474 -4.84238,3.19081 -9.09137,4.04061 -1.6509,0.33018 -3.39434,-0.30117 -5.05077,0 -2.09523,0.38095 -3.97268,1.60266 -6.06091,2.0203 -1.32072,0.26415 -2.69374,0 -4.04061,0 -0.70977,0 -13.03432,0 -13.13198,0 -2.02031,0 -4.05064,-0.20102 -6.06092,0 -1.38143,0.13815 -2.66301,0.83796 -4.04061,1.01016 -2.33882,0.29235 -4.71405,0 -7.07107,0 -3.36717,0 -6.73435,0 -10.10152,0 -1.01016,0 -2.02031,0 -3.03046,0 -1.01015,0 -2.03405,0.16606 -3.03046,0 -1.05031,-0.17506 -2.0203,-0.67344 -3.03046,-1.01016 -1.01015,-0.33671 -2.04182,-0.61469 -3.03045,-1.01015 -0.69908,-0.27963 -1.28987,-0.82754 -2.02031,-1.01015 -1.30666,-0.32667 -2.83593,0.60234 -4.04061,0 -0.85183,-0.42592 -1.16847,-1.59439 -2.0203,-2.02031 -0.64318,-0.32159 -5.06821,0.33091 -6.06092,0 -0.71429,-0.23809 -1.28986,-0.82754 -2.0203,-1.01015 -0.65333,-0.16333 -1.34687,0 -2.02031,0 -2.0203,0 -4.04061,0 -6.06092,0 -2.35702,0 -4.71404,0 -7.07106,0 -0.33672,0 -0.77206,-0.23809 -1.01016,0 -0.23809,0.2381 0.2381,0.77206 0,1.01015 -1.34687,1.34687 -1.01015,-1.68358 -1.01015,1.01016"
       id="path3005"
       inkscape:connector-curvature="0"
       transform="translate(0,252.36218)"
       clip-path="url(#clipPath3140)" />
    <path
       style="fill:#008033"
       d="m 312.13714,482.8121 c -1.49094,10.43655 0.045,3.66441 -3.03046,12.12183 -5.84675,16.07856 1.30106,-1.91724 -4.04061,10.10153 -2.1683,4.87868 -1.71668,5.65607 -5.05076,10.10152 -0.85715,1.14286 -2.08137,1.96273 -3.03046,3.03046 -4.73967,5.33213 -4.29969,5.78901 -9.09137,10.10153 -5.31161,4.78044 -7.19708,5.8623 -13.13199,10.10152 -3.2051,2.28936 -13.24874,9.57815 -16.16244,11.11168 -5.33773,2.80933 -12.60394,4.5916 -18.18274,7.07107 -28.1889,12.52839 8.47414,-1.81457 -21.21321,8.08122 -3.44045,1.14682 -6.66107,2.89379 -10.10152,4.04061 -3.64216,1.21405 -7.46952,1.8164 -11.11168,3.03045 -3.44046,1.14682 -6.62791,2.99853 -10.10153,4.04061 -3.28904,0.98672 -6.77019,1.18748 -10.10152,2.02031 -3.41047,0.85262 -6.72894,2.03852 -10.10153,3.03046 -2.35173,0.69168 -4.78312,1.14032 -7.07107,2.0203 -2.10821,0.81085 -4.04061,2.02031 -6.06091,3.03046 -2.02031,1.01015 -4.21046,1.73514 -6.06092,3.03046 -1.56044,1.09231 -2.55324,2.85071 -4.04061,4.04061 -9.42609,7.54087 -3.21733,0.18687 -13.13198,10.10152 -2.44461,2.44461 -9.56967,11.89922 -11.11168,14.14214 -1.79963,2.61764 -3.25113,5.46358 -5.05076,8.08122 -3.8152,5.54939 -8.38628,10.55912 -12.12183,16.16244 -2.17818,3.26727 -4.093463,6.7032 -6.060916,10.10153 -1.736952,3.00019 -3.43615,6.02361 -5.050762,9.09137 -1.753357,3.33138 -3.087704,6.88925 -5.050763,10.10152 -1.755814,2.87315 -4.305102,5.20808 -6.060915,8.08122 -1.96306,3.21228 -3.289345,6.77441 -5.050763,10.10153 -0.02934,0.0554 -8.071417,14.1209 -8.08122,14.14214 -0.892422,1.93358 -1.346871,4.04061 -2.020306,6.06091 -1.850406,5.55122 -4.322322,11.34507 -5.050762,17.17259 -0.125294,1.00236 0.111552,2.02649 0,3.03046 -1.231577,11.08419 -1.010153,1.58311 -1.010153,10.10153 0,1.34687 -0.370013,2.74556 0,4.04061 0.333526,1.16734 1.542067,1.91456 2.020305,3.03046 0.546887,1.27606 0.321352,2.8352 1.010153,4.04061 0.70877,1.24034 2.020305,2.0203 3.030457,3.03045 1.010153,1.01016 1.932999,2.11591 3.030458,3.03046 1.857212,1.54768 4.95389,3.09964 7.071068,4.04061 6.207581,2.75893 12.533492,3.94086 19.192898,5.05076 2.020305,0.33672 4.021154,0.82472 6.060911,1.01016 1.67668,0.15242 3.41745,-0.40833 5.05077,0 1.1778,0.29445 1.8937,1.59402 3.03045,2.0203 1.60762,0.60286 3.37472,0.6377 5.05077,1.01015 1.35526,0.30117 2.66301,0.83796 4.04061,1.01016 1.33647,0.16705 2.70042,-0.13402 4.04061,0 2.03801,0.2038 4.04061,0.67343 6.06091,1.01015 2.02031,0.33672 4.06152,0.56584 6.06092,1.01015 2.07888,0.46197 4.04061,1.34687 6.06091,2.02031 1.01016,0.33671 1.97218,0.89256 3.03046,1.01015 2.00795,0.2231 4.05064,-0.20103 6.06092,0 1.38143,0.13814 2.66301,0.83795 4.04061,1.01015 1.33647,0.16706 2.69374,0 4.04061,0 2.0203,0 4.04061,0 6.06091,0 6.73435,0 13.4687,0 20.20305,0 5.38748,0 10.77496,0 16.16244,0 2.35703,0 4.71405,0 7.07107,0 1.01015,0 2.03405,0.16607 3.03046,0 2.82255,-0.47042 6.26882,-2.56003 9.09137,-3.03046 2.32496,-0.38749 4.73225,0.29236 7.07107,0 1.3776,-0.1722 2.68535,-0.70898 4.04061,-1.01015 1.67604,-0.37245 3.3851,-0.59373 5.05076,-1.01015 1.03301,-0.25825 2.02031,-0.67344 3.03046,-1.01015 2.02031,-0.67344 4.04061,-1.34687 6.06092,-2.02031 1.01015,-0.33672 1.98015,-0.8351 3.03045,-1.01015 0.99641,-0.16607 2.02031,0 3.03046,0 2.69374,0 5.38748,0 8.08122,0 1.01015,0 2.03405,0.16607 3.03046,0 1.05031,-0.17505 2.0203,-0.67344 3.03046,-1.01015 1.68358,0 3.37553,0.16752 5.05076,0 7.51137,-0.75114 2.73579,-1.02163 10.10153,-3.03046 23.23827,-6.33771 -15.49993,6.09017 14.14213,-3.03046 1.7331,-0.53326 3.29162,-1.58052 5.05076,-2.0203 2.30987,-0.57747 4.72852,-0.58424 7.07107,-1.01016 1.90064,-0.34557 10.68328,-2.85196 11.11168,-3.03045 7.77551,-3.2398 2.37601,-2.19816 8.08122,-5.05077 7.04053,-3.52026 -1.88289,3.27556 9.09137,-4.04061 2.20187,-1.46791 4.5528,-5.13206 6.06092,-7.07107 1.32368,-1.70187 2.93133,-3.20197 4.04061,-5.05076 1.9264,-3.21067 2.87986,-8.87173 4.04061,-12.12183 8.03941,-22.51036 -2.21801,9.6845 6.06091,-15.15229 0.43903,-1.31707 0.61122,-2.71084 1.01016,-4.04061 0.61193,-2.03977 1.34687,-4.04061 2.0203,-6.06091 0.33672,-1.01015 0.59071,-2.05176 1.01015,-3.03046 0.59319,-1.38409 1.54412,-2.61204 2.02031,-4.04061 0.54294,-1.62882 0.6377,-3.37472 1.01015,-5.05076 0.30117,-1.35526 0.70898,-2.68535 1.01015,-4.04061 0.34911,-1.57096 1.34843,-7.2997 2.02031,-9.09138 3.77762,-10.07364 0.40577,3.22623 4.04061,-10.10152 0.45175,-1.65643 0.67343,-3.36718 1.01015,-5.05076 0.67344,-1.68359 1.49926,-3.31396 2.02031,-5.05077 1.66263,-5.5421 0.17593,-5.40263 3.03045,-11.11167 0.75293,-1.50585 2.22427,-2.5626 3.03046,-4.04061 1.22795,-2.25125 1.88364,-4.77744 3.03046,-7.07107 2.27717,-4.55434 3.24113,-5.14367 6.06091,-9.09138 0.70566,-0.98791 1.16185,-2.17199 2.02031,-3.03045 0.85846,-0.85847 2.0978,-1.24309 3.03046,-2.02031 1.09746,-0.91455 1.79011,-2.32169 3.03046,-3.03046 1.2054,-0.6888 2.75158,-0.49454 4.04061,-1.01015 9.41591,-4.70796 2.55076,-1.63252 12.12183,-5.05076 2.70931,-0.96761 5.35193,-2.1207 8.08122,-3.03046 3.33503,-1.11168 6.80992,-1.79611 10.10152,-3.03046 2.11495,-0.7931 3.9759,-2.1617 6.06092,-3.03045 1.96577,-0.81908 4.02114,-1.40838 6.06091,-2.02031 2.8478,-0.85434 4.43065,-0.8887 7.07107,-2.0203 2.76818,-1.18637 5.22408,-3.08823 8.08122,-4.04061 1.62882,-0.54295 3.5151,-0.24232 5.05076,-1.01016 1.27776,-0.63887 1.94581,-2.10075 3.03046,-3.03045 1.27828,-1.09567 2.76234,-1.9348 4.04061,-3.03046 3.86205,-3.31033 6.67987,-7.70074 9.09137,-12.12183 1.08162,-1.98297 2.31618,-3.91806 3.03046,-6.06092 0.63888,-1.91663 -0.39621,-4.07984 0,-6.06091 0.14766,-0.73831 0.88637,-1.27763 1.01015,-2.02031 0.22143,-1.32854 0,-2.69374 0,-4.04061 0,-1.01015 0,-2.0203 0,-3.03046 0,-1.34687 0,-2.69374 0,-4.04061 0,-1.34687 0.16706,-2.70414 0,-4.04061 -0.1722,-1.3776 -0.62875,-2.7057 -1.01015,-4.04061 -0.29252,-1.02382 -0.46232,-2.1174 -1.01015,-3.03045 -0.49,-0.81666 -1.53031,-1.20365 -2.02031,-2.02031 -0.54783,-0.91305 -0.46232,-2.1174 -1.01015,-3.03046 -3.03046,-5.05076 -1.01015,0 -3.03046,-3.03045 -0.98138,-1.47208 -0.63063,-2.10402 -2.0203,-3.03046 -0.62647,-0.41765 -1.41797,-0.5584 -2.02031,-1.01016 -1.52381,-1.14285 -2.38681,-3.09558 -4.04061,-4.04061 -1.57436,-0.89963 -3.60014,-0.93233 -5.05076,-2.0203 -1.34687,-1.01015 -1.77213,-2.9221 -3.03046,-4.04061 -1.81478,-1.61315 -4.07173,-2.64818 -6.06091,-4.04061 -1.37925,-0.96547 -2.72595,-1.97873 -4.04061,-3.03046 -2.05357,-1.64285 -4.05333,-3.35203 -6.06092,-5.05076 -2.36984,-2.00525 -4.58756,-4.19829 -7.07107,-6.06092 -4.8562,-3.64215 -10.10152,-6.73435 -15.15228,-10.10152 -2.02031,-1.34687 -4.11844,-2.58375 -6.06092,-4.04061 -0.7619,-0.57143 -1.20364,-1.53031 -2.0203,-2.02031 -0.91306,-0.54783 -2.17863,-0.37127 -3.03046,-1.01015 -0.60234,-0.45175 -0.59251,-1.39383 -1.01015,-2.0203 -0.26415,-0.39622 -0.67344,-0.67344 -1.01016,-1.01016 -1.4206,-1.4206 -1.88823,-1.75616 -3.03045,-4.04061 -1.7795,-3.559 -2.65381,-7.41354 -4.04061,-11.11168 -0.6952,-1.85386 -2.45725,-5.78836 -3.03046,-8.08122 -0.57632,-2.30528 -0.86577,-5.77215 -2.02031,-8.08122 -0.54294,-1.08588 -1.39568,-1.98941 -2.0203,-3.03045 -0.77475,-1.29126 -1.46105,-2.64247 -2.02031,-4.04061 -0.39545,-0.98864 -0.25723,-2.27754 -1.01015,-3.03046 -0.47619,-0.47619 -1.45997,0.37355 -2.02031,0 -3.48221,-2.32148 0.78097,-2.02031 -2.0203,-2.02031 -4.5985,0 -0.0578,0.47619 -3.03046,-1.01015 -0.95238,-0.47619 -2.04182,-0.6147 -3.03046,-1.01015 -2.35531,-0.94213 -2.17911,-1.5417 -5.05076,-2.02031 -0.99641,-0.16606 -2.0203,0 -3.03046,0 -3.36717,0 -6.73435,0 -10.10152,0 -2.35702,0 -4.71405,0 -7.07107,0 -0.67343,0 -1.36698,-0.16333 -2.0203,0 -4.87797,1.2195 0.0501,0.48005 -3.03046,2.02031 -0.95238,0.47619 -2.07808,0.53396 -3.03046,1.01015 -0.40801,0.20401 -4.01033,4.01033 -4.04061,4.04061 -1.01015,1.01015 -2.0203,2.02031 -3.03046,3.03046 -0.33671,0.33672 -0.74601,0.61394 -1.01015,1.01015 -0.41765,0.62647 -0.67343,1.34687 -1.01015,2.02031 -0.67344,1.34687 -1.46105,2.64246 -2.02031,4.04061 -0.39545,0.98863 -0.63628,2.03346 -1.01015,3.03045 -0.63668,1.69783 -1.62695,3.28067 -2.02031,5.05077 -0.29217,1.31479 0.19048,2.70727 0,4.04061 -0.15058,1.05409 -0.71763,2.00663 -1.01015,3.03045 -0.3814,1.33491 -0.57112,2.72354 -1.01015,4.04061 -0.2381,0.71429 -0.82754,1.28987 -1.01015,2.02031 -0.16333,0.65333 0.30117,1.41797 0,2.0203 -4.63775,9.27551 0.75025,-6.92638 -4.04061,5.05077 -0.25011,0.62527 0.2501,1.39503 0,2.0203 -0.45089,1.12722 -1.29188,2.05922 -2.02031,3.03046 -0.28571,0.38095 -0.85957,0.5584 -1.01015,1.01015 -0.21296,0.63888 0.37355,1.45998 0,2.02031 -0.41765,0.62647 -1.48791,0.47775 -2.02031,1.01015 -0.33678,0.33678 0.33679,1.68352 0,2.02031 -0.23809,0.23809 -0.77205,-0.2381 -1.01015,0 -0.23809,0.23809 0.2381,0.77205 0,1.01015 -0.23809,0.23809 -0.77206,-0.2381 -1.01015,0 -0.2381,0.23809 0.33018,0.94412 0,1.01015 -1.65089,0.33018 -3.36718,0 -5.05076,0 z"
       id="path3007"
       inkscape:connector-curvature="0"
       transform="translate(0,252.36218)"
       clip-path="url(#clipPath3103)" />
    <path
       style="fill:#008033"
       d="m 627.30473,530.28927 c -1.34687,0.67344 -2.69374,1.34687 -4.04061,2.02031 -1.01015,1.01015 -1.81903,2.27331 -3.03046,3.03045 -1.53765,0.96104 -3.46567,1.1397 -5.05076,2.02031 -1.47172,0.81762 -2.56889,2.21283 -4.04061,3.03046 -1.58509,0.8806 -3.46567,1.13969 -5.05076,2.0203 -9.789,5.43833 1.52925,0.93199 -8.08122,5.05076 -1.9574,0.83889 -4.08365,1.2294 -6.06092,2.02031 -0.69907,0.27963 -1.282,0.86249 -2.0203,1.01015 -0.99054,0.19811 -2.16426,-0.51972 -3.03046,0 -1.04104,0.62463 -1.07229,2.27205 -2.02031,3.03046 -0.83146,0.66517 -2.164,0.39125 -3.03045,1.01015 -2.18388,1.55991 -6.67808,7.08688 -8.08122,9.09137 -1.12593,1.60847 -1.85243,3.48006 -3.03046,5.05077 -0.85714,1.14285 -2.17332,1.8876 -3.03046,3.03045 -1.17803,1.57071 -1.98987,3.38582 -3.03046,5.05077 -0.64344,1.02951 -1.47736,1.94457 -2.0203,3.03046 -0.81093,1.62184 -1.20938,3.42891 -2.02031,5.05076 -0.12041,0.24082 -3.99966,5.93806 -4.04061,6.06091 -0.31944,0.95832 0,2.02031 0,3.03046 0,2.02031 0,4.04061 0,6.06092 0,1.34687 0,2.69374 0,4.04061 0,1.34687 -0.13402,2.70042 0,4.04061 0.2038,2.038 0.60848,4.05251 1.01016,6.06091 0.27227,1.36136 0.38927,2.79886 1.01015,4.04061 1.74552,3.49105 5.62367,8.03974 8.08122,11.11168 1.34687,1.68359 2.59829,3.44819 4.04061,5.05076 5.01166,5.56852 11.12047,9.60612 16.16244,15.15229 3.53805,3.89186 6.38236,8.40266 10.10152,12.12183 2.53099,2.53099 5.46452,4.62881 8.08122,7.07107 2.43686,2.27439 4.45001,5.01166 7.07107,7.07107 2.13462,1.6772 4.83404,2.50265 7.07107,4.04061 3.18653,2.19074 12.14739,9.86336 16.16244,12.12183 2.89039,1.62584 6.24768,2.33439 9.09137,4.04061 2.25508,1.35304 3.93407,3.50396 6.06092,5.05076 1.58786,1.15481 3.57317,1.73756 5.05076,3.03046 1.26703,1.10865 1.83998,2.85013 3.03046,4.04061 1.19048,1.19047 2.77358,1.92181 4.04061,3.03046 1.43348,1.25429 2.69374,2.69374 4.04061,4.04061 0.67343,0.67343 1.24532,1.46674 2.02031,2.0203 1.59767,1.14119 3.57316,1.73756 5.05076,3.03046 1.26703,1.10865 1.68359,3.03046 3.03046,4.04061 1.45062,1.08797 3.42891,1.20938 5.05076,2.0203 1.08588,0.54294 1.8937,1.59403 3.03046,2.02031 1.60761,0.60285 3.44315,0.4073 5.05076,1.01015 1.13675,0.42628 1.94457,1.47737 3.03046,2.02031 0.95238,0.47619 2.1174,0.46232 3.03045,1.01015 0.81666,0.49 1.16847,1.59439 2.02031,2.0203 1.29462,0.32366 5.62189,1.29572 7.07107,2.02031 3.20091,1.60045 2.50625,2.52265 6.06091,3.03046 1.33334,0.19047 2.69374,0 4.04061,0 2.02303,0 4.03789,0 6.06092,0 5.08149,0 9.26082,0.42035 14.14213,-2.02031 3.25765,-1.62882 6.01197,-4.11603 9.09138,-6.06091 3.32003,-2.09687 6.78148,-3.96405 10.10152,-6.06092 3.03046,-2.0203 6.06092,-4.04061 9.09137,-6.06091 2.02031,-2.02031 3.7118,-4.4346 6.06092,-6.06092 2.1084,-1.45966 4.90761,-1.65371 7.07107,-3.03046 2.54716,-1.62092 6.26686,-7.01782 8.08122,-9.09137 0.94072,-1.07511 2.27331,-1.81903 3.03046,-3.03046 0.96103,-1.53765 1.01447,-3.54202 2.0203,-5.05076 1.05657,-1.58486 3.08086,-2.39532 4.04061,-4.04061 2.29162,-3.92849 3.60305,-10.80916 5.05076,-15.15229 0.90976,-2.72928 2.06285,-5.37191 3.03046,-8.08122 0.71626,-2.00552 1.2294,-4.08364 2.02031,-6.06091 0.55925,-1.39815 1.65508,-2.57973 2.0203,-4.04061 0.32667,-1.30666 0,-2.69374 0,-4.04061 0,-1.68359 0,-3.36718 0,-5.05077 0,-0.33671 0.2381,-0.77205 0,-1.01015 -0.0362,-0.0362 -3.86567,-1.91534 -4.04061,-2.0203 -1.04104,-0.62463 -2.0203,-1.34687 -3.03046,-2.02031 -4.57076,-3.04718 -8.73777,-5.7311 -13.13198,-9.09137 -3.42534,-2.61938 -6.65185,-5.49397 -10.10153,-8.08122 -5.65394,-4.24046 -13.9493,-9.24812 -19.19289,-14.14214 -5.10361,-4.76336 -6.32363,-7.73499 -10.10153,-13.13198 -0.96547,-1.37925 -2.33378,-2.50793 -3.03046,-4.04061 -0.71214,-1.56672 -2.78616,-9.67887 -3.03045,-12.12183 -0.16753,-1.67523 0,-3.36718 0,-5.05077 0,-4.79776 -0.18593,-9.35784 1.01015,-14.14213 0.65528,-2.62113 6.06645,-13.25469 7.07107,-15.15229 1.62203,-3.06384 3.26715,-6.11868 5.05076,-9.09137 3.51176,-5.85293 7.78882,-11.19146 11.11168,-17.1726 5.35552,-9.63994 -1.57861,2.14707 4.04061,-9.09137 0.54294,-1.08588 1.47736,-1.94457 2.0203,-3.03046 0.47619,-0.95238 0.67344,-2.0203 1.01015,-3.03045 2.422,-7.266 -0.5165,1.80775 2.02031,-7.07107 0.82236,-2.87825 1.56918,-3.91317 2.0203,-7.07107 0.14286,-1 0,-2.0203 0,-3.03046 0,-1.01015 0,-2.0203 0,-3.03045 0,-3.36718 0,-6.73435 0,-10.10153 0,-1.01015 0.37517,-2.09255 0,-3.03046 -0.3537,-0.88426 -1.59438,-1.16847 -2.0203,-2.0203 -0.30117,-0.60234 0.13207,-1.35995 0,-2.02031 -0.20882,-1.04411 -0.80133,-1.98634 -1.01015,-3.03046 -0.13207,-0.66035 0.37355,-1.45997 0,-2.0203 -0.41765,-0.62647 -1.60266,-0.38368 -2.02031,-1.01015 -0.37355,-0.56033 0.30117,-1.41797 0,-2.02031 -0.63887,-1.27775 -2.0203,-2.0203 -3.03046,-3.03046 -1.32966,-1.32966 -2.71094,-2.71094 -4.04061,-4.04061 -0.67343,-0.67343 -1.22787,-1.49201 -2.0203,-2.0203 -1.25294,-0.83529 -2.73317,-1.2732 -4.04061,-2.02031 -1.05409,-0.60233 -1.94458,-1.47736 -3.03046,-2.0203 -0.95238,-0.47619 -2.0203,-0.67344 -3.03046,-1.01015 -1.01015,-0.33672 -1.99745,-0.75191 -3.03045,-1.01016 -1.66567,-0.41641 -3.42194,-0.46721 -5.05077,-1.01015 -5.51463,-1.83821 -2.36558,-2.39539 -8.08122,-3.03046 -1.67329,-0.18592 -3.36717,0 -5.05076,0 -1.01015,0 -2.03992,0.19811 -3.03046,0 -0.7383,-0.14766 -1.28986,-0.82754 -2.0203,-1.01015 -0.65333,-0.16333 -1.34687,0 -2.02031,0 -1.68359,0 -3.39987,0.33018 -5.05076,0 -0.7383,-0.14766 -1.282,-0.86249 -2.02031,-1.01015 -0.41155,-0.0823 -7.66966,-0.0823 -8.08122,0 -0.7383,0.14766 -1.34687,0.67343 -2.0203,1.01015 -1.34687,0.67344 -2.61204,1.54412 -4.04061,2.02031 -1.31708,0.43902 -2.79886,0.38927 -4.04061,1.01015 -0.85184,0.42592 -1.2584,1.44888 -2.02031,2.0203 -0.60233,0.45176 -1.41796,0.5584 -2.0203,1.01016 -0.76191,0.57143 -1.2584,1.44887 -2.02031,2.0203 -0.60234,0.45176 -1.41796,0.5584 -2.0203,1.01015 -2.34602,1.75952 -3.3402,3.78017 -5.05076,6.06092 -0.28572,0.38095 -0.67344,0.67343 -1.01016,1.01015 -1.01015,0.67344 -2.27204,1.07229 -3.03045,2.02031 -0.66518,0.83146 -0.37128,2.17862 -1.01016,3.03045 -0.45175,0.60234 -1.4879,0.47776 -2.0203,1.01016 -0.85847,0.85846 -1.26189,2.08244 -2.02031,3.03045 -0.59494,0.74369 -1.44887,1.25841 -2.0203,2.02031 -0.90351,1.20468 -1.1168,2.83593 -2.02031,4.04061 -0.57143,0.7619 -1.46674,1.24532 -2.0203,2.02031 -1.54381,2.16133 -3.93443,6.30054 -5.05077,9.09137 -0.0524,0.13091 -2.00034,6.02765 -2.0203,6.06091 -0.49,0.81666 -1.6666,1.13605 -2.02031,2.02031 -0.37516,0.9379 0.19811,2.03992 0,3.03046 -0.14766,0.7383 -0.82754,1.28986 -1.01015,2.0203 -0.16333,0.65333 0.30117,1.41797 0,2.02031 -0.42592,0.85183 -1.49202,1.22787 -2.0203,2.0203 -0.18678,0.28017 0.10648,0.69072 0,1.01015 -0.47619,1.42858 -1.54412,2.61204 -2.02031,4.04061 -0.10648,0.31944 0.15059,0.70899 0,1.01016 -0.42592,0.85183 -1.59439,1.16847 -2.0203,2.0203 -0.15059,0.30117 0.23809,0.77206 0,1.01015 -0.5324,0.5324 -1.60266,0.38369 -2.02031,1.01016 -0.37355,0.56033 0.21296,1.38143 0,2.0203 -0.18224,0.54674 -2.58803,2.36682 -3.03046,3.03046 -0.41764,0.62647 -0.47775,1.48791 -1.01015,2.0203 -0.23809,0.2381 -0.77206,-0.23809 -1.01015,0 -0.5324,0.5324 -0.47776,1.48791 -1.01015,2.02031 -0.2381,0.2381 -0.70899,-0.15058 -1.01016,0 -0.64343,0.32172 -4.25701,4.25702 -5.05076,5.05076"
       id="path3009"
       inkscape:connector-curvature="0"
       transform="translate(0,252.36218)"
       clip-path="url(#clipPath3125)" />
  </g>
</svg>
