<?xml version="1.0" encoding="UTF-8" standalone="no"?>
<!-- Created with Inkscape (http://www.inkscape.org/) -->

<svg
   xmlns:dc="http://purl.org/dc/elements/1.1/"
   xmlns:cc="http://creativecommons.org/ns#"
   xmlns:rdf="http://www.w3.org/1999/02/22-rdf-syntax-ns#"
   xmlns:svg="http://www.w3.org/2000/svg"
   xmlns="http://www.w3.org/2000/svg"
   xmlns:sodipodi="http://sodipodi.sourceforge.net/DTD/sodipodi-0.dtd"
   xmlns:inkscape="http://www.inkscape.org/namespaces/inkscape"
   width="64"
   height="64"
   id="svg2"
   version="1.1"
   inkscape:version="0.48.4 r9939"
   sodipodi:docname="enemy.svg"
   inkscape:export-filename="C:\Users\gruarm\GitHub\ChapShmup\img\enemy.png"
   inkscape:export-xdpi="120"
   inkscape:export-ydpi="120">
  <defs
     id="defs4" />
  <sodipodi:namedview
     id="base"
     pagecolor="#ffffff"
     bordercolor="#666666"
     borderopacity="1.0"
     inkscape:pageopacity="0.0"
     inkscape:pageshadow="2"
     inkscape:zoom="11.140414"
     inkscape:cx="3.4541997"
     inkscape:cy="32.36729"
     inkscape:document-units="px"
     inkscape:current-layer="layer1"
     showgrid="true"
     inkscape:window-width="1920"
     inkscape:window-height="1017"
     inkscape:window-x="-8"
     inkscape:window-y="-8"
     inkscape:window-maximized="1"
     showguides="true"
     inkscape:guide-bbox="true"
     inkscape:snap-bbox="true"
     inkscape:bbox-paths="true"
     inkscape:bbox-nodes="true"
     inkscape:snap-bbox-edge-midpoints="true"
     inkscape:snap-bbox-midpoints="true">
    <inkscape:grid
       type="xygrid"
       id="grid2995"
       empspacing="8"
       visible="true"
       enabled="true"
       snapvisiblegridlinesonly="true" />
  </sodipodi:namedview>
  <metadata
     id="metadata7">
    <rdf:RDF>
      <cc:Work
         rdf:about="">
        <dc:format>image/svg+xml</dc:format>
        <dc:type
           rdf:resource="http://purl.org/dc/dcmitype/StillImage" />
        <dc:title></dc:title>
      </cc:Work>
    </rdf:RDF>
  </metadata>
  <g
     inkscape:label="Layer 1"
     inkscape:groupmode="layer"
     id="layer1"
     transform="translate(0,-988.3622)">
    <path
       style="fill:#4d4d4d;fill-opacity:1;stroke:#000000;stroke-width:1px;stroke-linecap:butt;stroke-linejoin:miter;stroke-opacity:1"
       d="m 30,1002.8622 -3,-6 10,0 -3,6 z"
       id="path5159"
       inkscape:connector-curvature="0" />
    <path
       style="fill:#4d4d4d;fill-opacity:1;stroke:#000000;stroke-opacity:1"
       d="m 24,1048.3622 c -6,-8 -6,-19 -6,-29 0,-6.0093 6,-17 6,-17 l 16,0 c 0,0 6,10.9907 6,17 0,10 0,21 -6,29 -3.200013,4.2667 -12.799987,4.2667 -16,0 z"
       id="path3833"
       inkscape:connector-curvature="0"
       sodipodi:nodetypes="ssccsss" />
    <path
       style="fill:#000000;fill-opacity:1;stroke:none"
       d="m 26,1047.8677 c 3.152822,2.4616 8.847178,2.4616 12,0 2.16657,-1.6916 2,-5.2513 2,-8 0,-2.7487 0.16657,-6.3084 -2,-8 -3.152822,-2.4616 -8.847178,-2.4616 -12,0 -2.16657,1.6916 -2,5.2513 -2,8 0,2.7487 -0.16657,6.3084 2,8 z"
       id="path5608"
       inkscape:connector-curvature="0"
       sodipodi:nodetypes="sssssss" />
    <path
       style="fill:#697cd0;fill-opacity:1;stroke:none"
       d="m 37,1046.8677 c 1.937355,-1.4613 2,-4.5733 2,-7 0,-2.4267 -0.06265,-5.5386 -2,-7 -2.661162,-2.0073 -7.338838,-2.0073 -10,0 -1.937355,1.4614 -2,4.5733 -2,7 0,2.4267 0.06264,5.5387 2,7 3.385329,2.3925 6.776353,2.3842 10,0 z"
       id="path6118"
       inkscape:connector-curvature="0"
       sodipodi:nodetypes="csssscc" />
    <path
       style="fill:none;stroke:#000000;stroke-width:1px;stroke-linecap:butt;stroke-linejoin:miter;stroke-opacity:1"
       d="m 25,1039.8677 14,0"
       id="path6120"
       inkscape:connector-curvature="0"
       sodipodi:nodetypes="cc" />
    <path
       style="fill:#4d4d4d;fill-opacity:1;stroke:#000000;stroke-opacity:1"
       d="m 18,1018.3622 c 0,0 -1.724925,-3.5235 -4.499141,-6.5 -2.650432,-2.8436 -3.962349,-4.2537 -5.0000004,-8 -1.0677343,-3.8549 -1,-14 -1,-14 0,0 5.6219314,5.46873 8.0000004,7 4.789053,3.0837 8.499141,5.5 8.499141,5.5 z"
       id="path6122"
       inkscape:connector-curvature="0"
       sodipodi:nodetypes="csscscc" />
    <path
       style="fill:#313131;fill-opacity:1;stroke:none"
       d="m 9,992.3622 c 3,7 8,9 14,11 -6,-4 -9.112213,-5.4897 -14,-11 z"
       id="path6196"
       inkscape:connector-curvature="0"
       sodipodi:nodetypes="ccc" />
    <path
       style="fill:#909090;fill-opacity:1;stroke:none"
       d="m 9,999.3622 c 1,6 3,10 6,12 -3,-6 -3,-6 -6,-12 z"
       id="path6196-1"
       inkscape:connector-curvature="0"
       sodipodi:nodetypes="ccc" />
    <path
       style="fill:#620000;fill-opacity:1;stroke:none"
       d="m 28,16 -2,0 c 0,0 -2.6374,10.469379 -4,16 -0.642885,2.609391 -1,16 -1,16 l 2,0 c 0,0 0.357115,-13.390609 1,-16 1.3626,-5.530621 4,-16 4,-16 z"
       id="path6252"
       inkscape:connector-curvature="0"
       transform="translate(0,988.3622)"
       sodipodi:nodetypes="ccsccsc" />
    <path
       style="fill:#620000;fill-opacity:1;stroke:none"
       d="m 36,1004.3622 2,0 c 0,0 2.6374,10.4694 4,16 0.642885,2.6094 1,16 1,16 l -2,0 c 0,0 -0.357115,-13.3906 -1,-16 -1.3626,-5.5306 -4,-16 -4,-16 z"
       id="path6252-8"
       inkscape:connector-curvature="0"
       sodipodi:nodetypes="ccsccsc" />
    <path
       style="fill:#313131;fill-opacity:1;stroke:none"
       d="m 30,16 4,0 c 0,0 4.475611,10.523138 4,16 -0.284023,3.270643 -4,9 -4,9 l -4,0 c 0,0 -3.715977,-5.729357 -4,-9 -0.475611,-5.476862 4,-16 4,-16 z"
       id="path6272"
       inkscape:connector-curvature="0"
       transform="translate(0,988.3622)"
       sodipodi:nodetypes="ccsccsc"
       inkscape:export-xdpi="120"
       inkscape:export-ydpi="120" />
    <path
       style="fill:#4d4d4d;fill-opacity:1;stroke:#000000;stroke-opacity:1"
       d="m 46,1018.3622 c 0,0 1.724925,-3.5235 4.499141,-6.5 2.650432,-2.8436 3.962349,-4.2537 5,-8 1.067735,-3.8549 1,-14 1,-14 0,0 -5.621931,5.46873 -8,7 -4.789053,3.0837 -8.499141,5.5 -8.499141,5.5 z"
       id="path6122-2"
       inkscape:connector-curvature="0"
       sodipodi:nodetypes="csscscc" />
    <path
       style="fill:#313131;fill-opacity:1;stroke:none"
       d="m 55.499141,991.8622 c -3,7 -8,9 -14,11 6,-4 9.112213,-5.4897 14,-11 z"
       id="path6196-7"
       inkscape:connector-curvature="0"
       sodipodi:nodetypes="ccc" />
    <path
       style="fill:#909090;fill-opacity:1;stroke:none"
       d="m 55.499141,998.8622 c -1,6 -3,10 -6,12 3,-6 3,-6 6,-12 z"
       id="path6196-1-5"
       inkscape:connector-curvature="0"
       sodipodi:nodetypes="ccc" />
    <path
       sodipodi:type="arc"
       style="fill:#4d4d4d;fill-opacity:1;stroke:#000000;stroke-linejoin:round;stroke-opacity:1"
       id="path5473"
       sodipodi:cx="32"
       sodipodi:cy="46"
       sodipodi:rx="6"
       sodipodi:ry="6"
       d="m 38,46 a 6,6 0 1 1 -12,0 6,6 0 1 1 12,0 z"
       transform="matrix(1,0,0,-1,0,1059.8622)" />
    <rect
       style="fill:#333333;fill-opacity:1;stroke:#000000;stroke-width:0.95521367;stroke-linejoin:round;stroke-opacity:1"
       id="rect5426-82"
       width="5.044786"
       height="26.044785"
       x="29.477608"
       y="-1036.3845"
       ry="2.170399"
       transform="scale(1,-1)" />
  </g>
  <g
     inkscape:groupmode="layer"
     id="layer2"
     inkscape:label="Window" />
</svg>
