<?xml version="1.0" encoding="UTF-8" standalone="no"?>
<!-- Created with Inkscape (http://www.inkscape.org/) -->

<svg
   xmlns:dc="http://purl.org/dc/elements/1.1/"
   xmlns:cc="http://creativecommons.org/ns#"
   xmlns:rdf="http://www.w3.org/1999/02/22-rdf-syntax-ns#"
   xmlns:svg="http://www.w3.org/2000/svg"
   xmlns="http://www.w3.org/2000/svg"
   xmlns:sodipodi="http://sodipodi.sourceforge.net/DTD/sodipodi-0.dtd"
   xmlns:inkscape="http://www.inkscape.org/namespaces/inkscape"
   width="64"
   height="64"
   id="svg2"
   version="1.1"
   inkscape:version="0.48.2 r9819"
   sodipodi:docname="enemy.svg"
   inkscape:export-filename="C:\Users\gruarm\Documents\Projects\ChapShmup\img\enemy.png"
   inkscape:export-xdpi="90"
   inkscape:export-ydpi="90">
  <defs
     id="defs4" />
  <sodipodi:namedview
     id="base"
     pagecolor="#ffffff"
     bordercolor="#666666"
     borderopacity="1.0"
     inkscape:pageopacity="0.0"
     inkscape:pageshadow="2"
     inkscape:zoom="11.140414"
     inkscape:cx="31.46034"
     inkscape:cy="32.36729"
     inkscape:document-units="px"
     inkscape:current-layer="layer1"
     showgrid="true"
     inkscape:window-width="1240"
     inkscape:window-height="921"
     inkscape:window-x="464"
     inkscape:window-y="24"
     inkscape:window-maximized="0"
     showguides="true"
     inkscape:guide-bbox="true">
    <inkscape:grid
       type="xygrid"
       id="grid2995"
       empspacing="8"
       visible="true"
       enabled="true"
       snapvisiblegridlinesonly="true" />
  </sodipodi:namedview>
  <metadata
     id="metadata7">
    <rdf:RDF>
      <cc:Work
         rdf:about="">
        <dc:format>image/svg+xml</dc:format>
        <dc:type
           rdf:resource="http://purl.org/dc/dcmitype/StillImage" />
        <dc:title></dc:title>
      </cc:Work>
    </rdf:RDF>
  </metadata>
  <g
     inkscape:label="Layer 1"
     inkscape:groupmode="layer"
     id="layer1"
     transform="translate(0,-988.3622)">
    <path
       style="fill:#4d4d4d;fill-opacity:1;stroke:none"
       d="m 24,1050.3622 c -8.118743,-6.698 -6.778715,-20.5037 -6,-31 0.444603,-5.9928 6,-17 6,-17 l 16,0 c 0,0 5.555397,11.0072 6,17 0.778715,10.4963 2.118743,24.302 -6,31 -4.113971,3.3941 -11.886029,3.3941 -16,0 z"
       id="path3833"
       inkscape:connector-curvature="0"
       sodipodi:nodetypes="ssccsss" />
    <path
       style="fill:#cacaca;fill-opacity:1;stroke:none"
       d="m 26,1048.3622 c 3.152822,2.4616 8.847178,2.4616 12,0 2.16657,-1.6916 2,-5.2513 2,-8 0,-2.7487 0.16657,-6.3084 -2,-8 -3.152822,-2.4616 -8.847178,-2.4616 -12,0 -2.16657,1.6916 -2,5.2513 -2,8 0,2.7487 -0.16657,6.3084 2,8 z"
       id="path5608"
       inkscape:connector-curvature="0"
       sodipodi:nodetypes="sssssss" />
    <path
       style="fill:#000000;fill-opacity:1;stroke:none"
       d="m 37,59 c 1.937355,-1.46135 2,-4.573297 2,-7 0,-2.426703 -0.06265,-5.53865 -2,-7 -2.661162,-2.007318 -7.338838,-2.007318 -10,0 -1.937355,1.46135 -2,4.573297 -2,7 0,2.426703 0.06264,5.53865 2,7 3.385329,2.392492 6.776353,2.384204 10,0 z"
       id="path6118"
       inkscape:connector-curvature="0"
       transform="translate(0,988.3622)"
       sodipodi:nodetypes="csssscc" />
    <path
       style="fill:#cacaca;fill-opacity:1;stroke:#cacaca;stroke-width:1px;stroke-linecap:butt;stroke-linejoin:miter;stroke-opacity:1"
       d="m 25,52 14,0"
       id="path6120"
       inkscape:connector-curvature="0"
       transform="translate(0,988.3622)"
       sodipodi:nodetypes="cc" />
    <path
       style="fill:#4d4d4d;fill-opacity:1;stroke:none"
       d="m 18,1019.3622 c 0,0 -7.225784,-4.0235 -10,-7 -2.6504318,-2.8436 -4.9623487,-6.2537 -6,-10 -1.06773433,-3.85486 0,-12 0,-12 0,0 3.6219311,4.46873 6,6 4.789053,3.08373 16,6 16,6 z"
       id="path6122"
       inkscape:connector-curvature="0"
       sodipodi:nodetypes="csscscc" />
    <path
       style="fill:#4d4d4d;fill-opacity:1;stroke:none"
       d="m 46,1019.3622 c 0,0 7.225784,-4.0235 10,-7 2.650432,-2.8436 4.962349,-6.2537 6,-10 1.067735,-3.85486 0,-12 0,-12 0,0 -3.621931,4.46873 -6,6 -4.789053,3.0837 -16,6 -16,6 z"
       id="path6122-0"
       inkscape:connector-curvature="0"
       sodipodi:nodetypes="csscscc" />
    <path
       style="fill:#313131;fill-opacity:1;stroke:none"
       d="m 3,994.3622 c 3.2740113,9.1231 14.417051,8.9183 18.760524,8.9763 C 13.903529,1000.4142 7.8877874,999.8725 3,994.3622 z"
       id="path6196"
       inkscape:connector-curvature="0"
       sodipodi:nodetypes="ccc" />
    <path
       style="fill:#313131;fill-opacity:1;stroke:none"
       d="m 61,994.3622 c -3.274011,9.1232 -14.417051,8.9184 -18.760524,8.9764 7.856995,-2.9243 13.872736,-3.46603 18.760524,-8.9764 z"
       id="path6196-6"
       inkscape:connector-curvature="0"
       sodipodi:nodetypes="ccc" />
    <path
       style="fill:#909090;fill-opacity:1;stroke:none"
       d="m 3,1002.3622 c 2,8 13,15 15,16 -6,-5 -11,-10 -15,-16 z"
       id="path6196-1"
       inkscape:connector-curvature="0"
       sodipodi:nodetypes="ccc" />
    <path
       style="fill:#909090;fill-opacity:1;stroke:none"
       d="m 61,1002.3622 c -2,8 -13,15 -15,16 6,-5 11,-10 15,-16 z"
       id="path6196-1-3"
       inkscape:connector-curvature="0"
       sodipodi:nodetypes="ccc" />
    <path
       style="fill:#620000;fill-opacity:1;stroke:none"
       d="m 28,16 -2,0 c 0,0 -2.6374,10.469379 -4,16 -0.642885,2.609391 -2,16 -2,16 l 2,0 c 0,0 1.357115,-13.390609 2,-16 1.3626,-5.530621 4,-16 4,-16 z"
       id="path6252"
       inkscape:connector-curvature="0"
       transform="translate(0,988.3622)"
       sodipodi:nodetypes="ccsccsc" />
    <path
       style="fill:#620000;fill-opacity:1;stroke:none"
       d="m 36,1004.3622 2,0 c 0,0 2.6374,10.4694 4,16 0.642885,2.6094 2,16 2,16 l -2,0 c 0,0 -1.357115,-13.3906 -2,-16 -1.3626,-5.5306 -4,-16 -4,-16 z"
       id="path6252-8"
       inkscape:connector-curvature="0"
       sodipodi:nodetypes="ccsccsc" />
    <path
       style="fill:#313131;fill-opacity:1;stroke:none"
       d="m 30,16 4,0 c 0,0 4.475611,10.523138 4,16 -0.284023,3.270643 -4,9 -4,9 l -4,0 c 0,0 -3.715977,-5.729357 -4,-9 -0.475611,-5.476862 4,-16 4,-16 z"
       id="path6272"
       inkscape:connector-curvature="0"
       transform="translate(0,988.3622)"
       sodipodi:nodetypes="ccsccsc" />
  </g>
  <g
     inkscape:groupmode="layer"
     id="layer2"
     inkscape:label="Window" />
</svg>
