<?xml version="1.0" encoding="UTF-8" standalone="no"?>
<!-- Created with Inkscape (http://www.inkscape.org/) -->

<svg
   xmlns:dc="http://purl.org/dc/elements/1.1/"
   xmlns:cc="http://creativecommons.org/ns#"
   xmlns:rdf="http://www.w3.org/1999/02/22-rdf-syntax-ns#"
   xmlns:svg="http://www.w3.org/2000/svg"
   xmlns="http://www.w3.org/2000/svg"
   xmlns:sodipodi="http://sodipodi.sourceforge.net/DTD/sodipodi-0.dtd"
   xmlns:inkscape="http://www.inkscape.org/namespaces/inkscape"
   width="16"
   height="16"
   id="svg2"
   version="1.1"
   inkscape:version="0.48.4 r9939"
   sodipodi:docname="New document 1">
  <defs
     id="defs4" />
  <sodipodi:namedview
     id="base"
     pagecolor="#ffffff"
     bordercolor="#666666"
     borderopacity="1.0"
     inkscape:pageopacity="0.0"
     inkscape:pageshadow="2"
     inkscape:zoom="31.678384"
     inkscape:cx="4.5012486"
     inkscape:cy="11.014705"
     inkscape:document-units="px"
     inkscape:current-layer="layer1"
     showgrid="true"
     inkscape:window-width="1920"
     inkscape:window-height="1017"
     inkscape:window-x="-8"
     inkscape:window-y="-8"
     inkscape:window-maximized="1">
    <inkscape:grid
       type="xygrid"
       id="grid2985"
       empspacing="4"
       visible="true"
       enabled="true"
       snapvisiblegridlinesonly="true" />
  </sodipodi:namedview>
  <metadata
     id="metadata7">
    <rdf:RDF>
      <cc:Work
         rdf:about="">
        <dc:format>image/svg+xml</dc:format>
        <dc:type
           rdf:resource="http://purl.org/dc/dcmitype/StillImage" />
        <dc:title></dc:title>
      </cc:Work>
    </rdf:RDF>
  </metadata>
  <g
     inkscape:label="Layer 1"
     inkscape:groupmode="layer"
     id="layer1"
     transform="translate(0,-1036.3622)">
    <path
       style="fill:#ffd42a;fill-opacity:1;stroke:none"
       d="M 8,0 C 7.254644,0 6.5587771,0.50672149 6,1 5.098999,1.7953877 4.3482772,2.8497185 4,4 3.6136211,5.2761227 3.6440886,6.7150468 4,8 c 0.5188256,1.8731251 2.1878323,3.234168 3,5 0.4404598,0.957657 1,3 1,3 0,0 0.5595402,-2.042343 1,-3 C 9.8121677,11.234168 11.481174,9.8731251 12,8 12.355911,6.7150468 12.386379,5.2761227 12,4 11.651723,2.8497185 10.901001,1.7953877 10,1 9.4412229,0.50672149 8.745356,0 8,0 z"
       id="path2987"
       inkscape:connector-curvature="0"
       transform="translate(0,1036.3622)"
       sodipodi:nodetypes="ssssscsssss" />
    <path
       style="fill:#ff6600;fill-opacity:1;stroke:none"
       d="M 8,1 C 7.057191,1 6.3607974,2.128958 6,3 5.6173166,3.9238795 5.4742689,5.1493492 6,6 6.3918568,6.6340377 8,9 8,9 8,9 9.6081432,6.6340377 10,6 10.525731,5.1493492 10.382683,3.9238795 10,3 9.6392026,2.128958 8.942809,1 8,1 z"
       id="path3757"
       inkscape:connector-curvature="0"
       transform="translate(0,1036.3622)"
       sodipodi:nodetypes="ssscsss" />
  </g>
</svg>
