<?xml version="1.0" encoding="UTF-8" standalone="no"?>
<!-- Created with Inkscape (http://www.inkscape.org/) -->

<svg
   xmlns:osb="http://www.openswatchbook.org/uri/2009/osb"
   xmlns:dc="http://purl.org/dc/elements/1.1/"
   xmlns:cc="http://creativecommons.org/ns#"
   xmlns:rdf="http://www.w3.org/1999/02/22-rdf-syntax-ns#"
   xmlns:svg="http://www.w3.org/2000/svg"
   xmlns="http://www.w3.org/2000/svg"
   xmlns:sodipodi="http://sodipodi.sourceforge.net/DTD/sodipodi-0.dtd"
   xmlns:inkscape="http://www.inkscape.org/namespaces/inkscape"
   width="64px"
   height="64px"
   id="svg3013"
   version="1.1"
   inkscape:version="0.48.4 r9939"
   sodipodi:docname="player.svg"
   inkscape:export-filename="C:\Users\gruarm\GitHub\ChapShmup\img\player.png"
   inkscape:export-xdpi="120"
   inkscape:export-ydpi="120">
  <defs
     id="defs3015">
    <linearGradient
       id="linearGradient5420"
       osb:paint="solid">
      <stop
         style="stop-color:#3670c8;stop-opacity:1;"
         offset="0"
         id="stop5422" />
    </linearGradient>
  </defs>
  <sodipodi:namedview
     id="base"
     pagecolor="#ffffff"
     bordercolor="#666666"
     borderopacity="1.0"
     inkscape:pageopacity="0.0"
     inkscape:pageshadow="2"
     inkscape:zoom="11"
     inkscape:cx="2.4674108"
     inkscape:cy="30.839618"
     inkscape:current-layer="layer1"
     showgrid="true"
     inkscape:document-units="px"
     inkscape:grid-bbox="true"
     inkscape:snap-bbox="true"
     inkscape:snap-global="true"
     inkscape:bbox-paths="true"
     inkscape:bbox-nodes="true"
     inkscape:snap-bbox-edge-midpoints="true"
     inkscape:snap-bbox-midpoints="true"
     inkscape:window-width="1920"
     inkscape:window-height="1017"
     inkscape:window-x="-8"
     inkscape:window-y="-8"
     inkscape:window-maximized="1">
    <inkscape:grid
       type="xygrid"
       id="grid3021"
       empspacing="4"
       visible="true"
       enabled="true"
       snapvisiblegridlinesonly="true"
       spacingx="1px"
       spacingy="1px" />
  </sodipodi:namedview>
  <metadata
     id="metadata3018">
    <rdf:RDF>
      <cc:Work
         rdf:about="">
        <dc:format>image/svg+xml</dc:format>
        <dc:type
           rdf:resource="http://purl.org/dc/dcmitype/StillImage" />
        <dc:title />
      </cc:Work>
    </rdf:RDF>
  </metadata>
  <g
     id="layer1"
     inkscape:label="Layer 1"
     inkscape:groupmode="layer">
    <path
       style="fill:#4d4d4d;fill-opacity:1;stroke:#000000;stroke-width:1px;stroke-linecap:butt;stroke-linejoin:round;stroke-opacity:1"
       d="m 20,58 c 0,0 -3.450698,-31.618677 -1,-42 0.684991,-2.901668 1.463522,-5.814337 5,-8 3.536478,-2.1856633 12.463522,-2.1856633 16,0 3.536478,2.185663 4.315009,5.098332 5,8 2.450698,10.381323 -1,42 -1,42 z"
       id="path3905"
       inkscape:connector-curvature="0"
       sodipodi:nodetypes="cszzscc" />
    <path
       style="fill:#4d4d4d;fill-opacity:1;stroke:#000000;stroke-width:1px;stroke-linecap:butt;stroke-linejoin:miter;stroke-opacity:1"
       d="m 22,53.5 c 0,0 -2.768161,-0.489755 -4,-1 -0.871042,-0.360797 -2,-1 -2,-1 l 0,6 c 0,0 1.128958,-0.639203 2,-1 1.231839,-0.510245 4,-1 4,-1 z"
       id="path3929"
       inkscape:connector-curvature="0"
       sodipodi:nodetypes="csccscc" />
    <path
       style="fill:#4d4d4d;fill-opacity:1;stroke:#000000;stroke-width:1px;stroke-linecap:butt;stroke-linejoin:miter;stroke-opacity:1"
       d="m 42.5,53.5 c 0,0 2.768161,-0.489755 4,-1 0.871042,-0.360797 2,-1 2,-1 l 0,6 c 0,0 -1.128958,-0.639203 -2,-1 -1.231839,-0.510245 -4,-1 -4,-1 z"
       id="path3929-4"
       inkscape:connector-curvature="0"
       sodipodi:nodetypes="csccscc" />
    <path
       style="fill:#4d4d4d;fill-opacity:1;stroke:#000000;stroke-width:1px;stroke-linecap:butt;stroke-linejoin:miter;stroke-opacity:1"
       d="m 26,56 c 0,0 -0.489755,2.768161 -1,4 -0.360797,0.871042 -1,2 -1,2 l 6,0 c 0,0 -0.639203,-1.128958 -1,-2 -0.510245,-1.231839 -1,-4 -1,-4 z"
       id="path3929-0"
       inkscape:connector-curvature="0"
       sodipodi:nodetypes="csccscc" />
    <path
       style="fill:#4d4d4d;fill-opacity:1;stroke:#000000;stroke-width:1px;stroke-linecap:butt;stroke-linejoin:miter;stroke-opacity:1"
       d="m 36,56 c 0,0 -0.489755,2.768161 -1,4 -0.360797,0.871042 -1,2 -1,2 l 6,0 c 0,0 -0.639203,-1.128958 -1,-2 -0.510245,-1.231839 -1,-4 -1,-4 z"
       id="path3929-0-9"
       inkscape:connector-curvature="0"
       sodipodi:nodetypes="csccscc" />
    <path
       style="fill:#7075d1;stroke:#000000;stroke-width:1px;stroke-linecap:butt;stroke-linejoin:miter;stroke-opacity:1;fill-opacity:1"
       d="m 32,9.5 c -1.374369,0 -2.87657,0.2082971 -4,1 -1.964822,1.384648 -3.303446,3.699437 -4,6 -0.772758,2.552245 0,8 0,8 l 16,0 c 0,0 0.772758,-5.447755 0,-8 -0.696554,-2.300563 -2.035178,-4.615352 -4,-6 -1.12343,-0.7917029 -2.625631,-1 -4,-1 z"
       id="path3974"
       inkscape:connector-curvature="0"
       sodipodi:nodetypes="sssccsss" />
    <path
       style="fill:#006666;stroke:#000000;stroke-width:1px;stroke-linecap:butt;stroke-linejoin:miter;stroke-opacity:1;fill-opacity:1"
       d="m 22,30 c 0,0 3.683772,-0.948683 4,0 1,3 1,7 1,9 0,1 2,0 2,0 l 0,2 c 0,0 -2.578363,1.264911 -3,0 -1,-3 -1,-7 -1,-9 0,-0.666667 -3,0 -3,0 z"
       id="path5453"
       inkscape:connector-curvature="0"
       sodipodi:nodetypes="cssccsscc" />
    <path
       style="fill:#4d4d4d;stroke:#000000;stroke-width:1px;stroke-linecap:butt;stroke-linejoin:miter;stroke-opacity:1;fill-opacity:1"
       d="m 18,31.5 c 0,0 -4.776743,4.119382 -6,8 -0.601279,1.907476 -2,8 -2,8 0,0 3.370914,-0.779329 4,-1 2.014056,-0.706493 4,0 4,0 z"
       id="path4059"
       inkscape:connector-curvature="0"
       sodipodi:nodetypes="cscscc" />
    <rect
       style="fill:#333333;fill-opacity:1;stroke:#000000;stroke-linejoin:round;stroke-opacity:1"
       id="rect5426"
       width="6"
       height="24"
       x="17"
       y="26.5"
       ry="2" />
    <path
       style="fill:#006666;fill-opacity:1;stroke:#000000;stroke-width:1px;stroke-linecap:butt;stroke-linejoin:miter;stroke-opacity:1"
       d="m 34.5,49.062183 c 0,0 3.683772,0.948683 4,0 1,-3 1,-7 1,-9 0,-1 2,0 2,0 l 0,-2 c 0,0 -2.578363,-1.264911 -3,0 -1,3 -1,7 -1,9 0,0.666667 -3,0 -3,0 z"
       id="path5453-7"
       inkscape:connector-curvature="0"
       sodipodi:nodetypes="cssccsscc" />
    <path
       style="fill:#4d4d4d;fill-opacity:1;stroke:#000000;stroke-width:1px;stroke-linecap:butt;stroke-linejoin:miter;stroke-opacity:1"
       d="m 46,31.5 c 0,0 4.776743,4.119382 6,8 0.601279,1.907476 2,8 2,8 0,0 -3.370914,-0.779329 -4,-1 -2.014056,-0.706493 -4,0 -4,0 z"
       id="path4059-6"
       inkscape:connector-curvature="0"
       sodipodi:nodetypes="cscscc" />
    <rect
       style="fill:#333333;fill-opacity:1;stroke:#000000;stroke-linejoin:round;stroke-opacity:1"
       id="rect5426-8"
       width="6"
       height="24"
       x="41"
       y="26.5"
       ry="2" />
    <path
       sodipodi:type="arc"
       style="fill:#4d4d4d;fill-opacity:1;stroke:#000000;stroke-linejoin:round;stroke-opacity:1"
       id="path5473"
       sodipodi:cx="32"
       sodipodi:cy="46"
       sodipodi:rx="6"
       sodipodi:ry="6"
       d="m 38,46 a 6,6 0 1 1 -12,0 6,6 0 1 1 12,0 z"
       transform="translate(0,-2)" />
    <rect
       style="fill:#333333;fill-opacity:1;stroke:#000000;stroke-width:0.95521367;stroke-linejoin:round;stroke-opacity:1"
       id="rect5426-82"
       width="5.044786"
       height="26.044785"
       x="29.477608"
       y="21.477608"
       ry="2.170399" />
  </g>
</svg>
