<?xml version="1.0" encoding="UTF-8" standalone="no"?>
<!-- Created with Inkscape (http://www.inkscape.org/) -->

<svg
   xmlns:dc="http://purl.org/dc/elements/1.1/"
   xmlns:cc="http://creativecommons.org/ns#"
   xmlns:rdf="http://www.w3.org/1999/02/22-rdf-syntax-ns#"
   xmlns:svg="http://www.w3.org/2000/svg"
   xmlns="http://www.w3.org/2000/svg"
   xmlns:sodipodi="http://sodipodi.sourceforge.net/DTD/sodipodi-0.dtd"
   xmlns:inkscape="http://www.inkscape.org/namespaces/inkscape"
   width="64"
   height="64"
   id="svg2"
   version="1.1"
   inkscape:version="0.48.2 r9819"
   sodipodi:docname="rocket.svg">
  <defs
     id="defs4" />
  <sodipodi:namedview
     id="base"
     pagecolor="#ffffff"
     bordercolor="#666666"
     borderopacity="1.0"
     inkscape:pageopacity="0.0"
     inkscape:pageshadow="2"
     inkscape:zoom="11.140414"
     inkscape:cx="32.53966"
     inkscape:cy="32.36729"
     inkscape:document-units="px"
     inkscape:current-layer="layer1"
     showgrid="true"
     inkscape:window-width="1240"
     inkscape:window-height="921"
     inkscape:window-x="568"
     inkscape:window-y="48"
     inkscape:window-maximized="0">
    <inkscape:grid
       type="xygrid"
       id="grid2995"
       empspacing="8"
       visible="true"
       enabled="false"
       snapvisiblegridlinesonly="true" />
  </sodipodi:namedview>
  <metadata
     id="metadata7">
    <rdf:RDF>
      <cc:Work
         rdf:about="">
        <dc:format>image/svg+xml</dc:format>
        <dc:type
           rdf:resource="http://purl.org/dc/dcmitype/StillImage" />
        <dc:title></dc:title>
      </cc:Work>
    </rdf:RDF>
  </metadata>
  <g
     inkscape:label="Layer 1"
     inkscape:groupmode="layer"
     id="layer1"
     transform="translate(0,-988.3622)">
    <path
       style="fill:#cacaca;fill-opacity:1;stroke:none"
       d="m 24,1042.3622 -2,-14 c 0,0 -8.084731,2.6173 -10,6 -2.956193,5.2212 0,18 0,18 0,0 3.766249,-6.2021 6,-8 1.977575,-1.5917 6,-2 6,-2 z"
       id="path3840-8"
       inkscape:connector-curvature="0"
       sodipodi:nodetypes="ccscsc" />
    <path
       style="fill:#cacaca;fill-opacity:1;stroke:none"
       d="m 24,8 c 0,0 1.873836,-2.0232829 3,-3 1.592637,-1.3812866 5,-3 5,-3 0,0 3.407363,1.6187134 5,3 1.126164,0.9767171 3,3 3,3 z"
       id="path3838"
       inkscape:connector-curvature="0"
       transform="translate(0,988.3622)"
       sodipodi:nodetypes="cscscc" />
    <path
       style="fill:#cacaca;fill-opacity:1;stroke:none"
       d="m 40,54 2,-14 c 0,0 8.084731,2.617271 10,6 2.956193,5.221199 0,18 0,18 0,0 -3.766249,-6.202062 -6,-8 -1.977575,-1.591742 -6,-2 -6,-2 z"
       id="path3840"
       inkscape:connector-curvature="0"
       transform="translate(0,988.3622)"
       sodipodi:nodetypes="ccscsc" />
    <path
       style="fill:#cb1212;fill-opacity:1;stroke:none"
       d="M 24 8 C 20.959089 12.579856 20.331362 18.512521 20 24 C 19.35206 34.730132 24 56 24 56 L 40 56 C 40 56 44.64794 34.730132 44 24 C 43.668638 18.512521 43.040911 12.579856 40 8 L 24 8 z "
       transform="translate(0,988.3622)"
       id="path3833" />
    <path
       sodipodi:type="arc"
       style="fill:#cacaca;fill-opacity:1;stroke:none"
       id="path3862"
       sodipodi:cx="35.5"
       sodipodi:cy="23"
       sodipodi:rx="6"
       sodipodi:ry="6"
       d="m 41.5,23 a 6,6 0 1 1 -12,0 6,6 0 1 1 12,0 z"
       transform="translate(-3.5,985.3622)" />
    <path
       sodipodi:type="arc"
       style="fill:#000000;fill-opacity:1;stroke:none"
       id="path3864"
       sodipodi:cx="32"
       sodipodi:cy="20"
       sodipodi:rx="4"
       sodipodi:ry="4"
       d="m 36,20 a 4,4 0 1 1 -8,0 4,4 0 1 1 8,0 z"
       transform="translate(0,988.3622)" />
    <path
       style="fill:#f37070;fill-opacity:1;stroke:none"
       d="m 26.436212,996.91338 c -2.718106,2.05281 -2.718106,3.07921 -4.077159,5.13202 C 21,1008.2038 21,1008.6111 21,1014.3622 c 1.359053,-7.1848 2.718106,-11.2904 5.436212,-17.44882 z"
       id="path3866"
       inkscape:connector-curvature="0"
       sodipodi:nodetypes="cccc" />
  </g>
  <g
     inkscape:groupmode="layer"
     id="layer2"
     inkscape:label="Window" />
</svg>
